<?xml version="1.0" standalone="no"?>
<!DOCTYPE svg PUBLIC "-//W3C//DTD SVG 20010904//EN"
 "http://www.w3.org/TR/2001/REC-SVG-20010904/DTD/svg10.dtd">
<svg version="1.0" xmlns="http://www.w3.org/2000/svg"
 width="600.000000pt" height="600.000000pt" viewBox="0 0 600.000000 600.000000"
 preserveAspectRatio="xMidYMid meet">
<metadata>
Created by potrace 1.11, written by Peter Selinger 2001-2013
</metadata>
<g transform="translate(0.000000,600.000000) scale(0.100000,-0.100000)"
fill="#000000" stroke="none">
<path d="M2907 5689 c-45 -10 -138 -55 -227 -109 -35 -21 -68 -36 -72 -34 -4
3 -8 1 -8 -5 0 -5 -12 -16 -27 -24 -71 -38 -100 -54 -125 -71 -15 -10 -33 -14
-39 -10 -8 4 -9 3 -5 -4 4 -7 -13 -21 -44 -37 -27 -14 -52 -25 -55 -25 -3 0
-14 -9 -25 -20 -12 -12 -25 -18 -30 -15 -6 4 -10 2 -10 -3 0 -4 -15 -16 -32
-25 -18 -9 -55 -30 -83 -47 -27 -16 -59 -34 -70 -39 -11 -5 -37 -21 -58 -35
-21 -14 -44 -26 -52 -26 -8 0 -15 -3 -15 -8 0 -4 -17 -16 -37 -27 -21 -11 -85
-48 -143 -81 -199 -116 -245 -142 -255 -144 -5 -1 -17 -7 -25 -14 -24 -21
-208 -126 -219 -126 -6 0 -11 -4 -11 -10 0 -5 -6 -10 -14 -10 -7 0 -19 -7 -26
-15 -7 -9 -15 -13 -18 -11 -2 3 -16 -3 -30 -14 -13 -11 -28 -17 -33 -14 -5 3
-9 1 -9 -4 0 -5 -15 -17 -33 -26 -17 -9 -48 -27 -68 -39 -20 -12 -81 -48 -135
-79 -140 -80 -214 -156 -250 -253 -7 -19 -8 -24 -15 -55 -2 -8 -8 -18 -14 -22
-6 -5 -5 -8 3 -8 7 0 10 -5 6 -11 -4 -7 -7 -25 -6 -41 0 -19 -3 -26 -11 -21
-9 5 -9 3 -1 -8 16 -19 15 -121 0 -112 -8 5 -8 3 0 -8 6 -8 12 -34 13 -58 2
-34 0 -41 -11 -35 -10 6 -11 4 -2 -7 15 -21 12 -95 -4 -91 -8 1 -11 -2 -7 -8
3 -6 11 -8 16 -5 14 9 11 -79 -3 -94 -9 -9 -9 -12 -1 -7 8 5 11 -42 11 -184 0
-104 -4 -188 -8 -185 -5 3 -12 1 -15 -5 -4 -6 -1 -9 7 -8 16 4 19 -70 4 -91
-8 -11 -8 -13 2 -7 9 5 12 -10 12 -64 0 -41 -4 -69 -9 -65 -5 3 -13 1 -16 -5
-4 -6 -1 -9 7 -8 9 2 13 -12 13 -52 0 -40 -4 -54 -13 -52 -8 1 -11 -2 -7 -8 3
-6 11 -8 16 -5 5 4 9 -20 9 -55 0 -35 -4 -59 -9 -55 -5 3 -13 1 -16 -5 -4 -6
-1 -9 7 -8 18 4 24 -108 6 -130 -11 -13 -11 -14 0 -8 10 6 12 -3 10 -41 -2
-33 -7 -47 -16 -45 -8 1 -11 -2 -7 -8 3 -6 11 -8 16 -5 14 9 11 -39 -3 -54
-10 -10 -10 -12 -1 -7 9 5 12 -9 11 -53 -1 -39 -5 -58 -12 -54 -6 4 -5 -1 3
-10 11 -14 11 -20 0 -34 -11 -13 -11 -15 -1 -9 10 6 12 -3 10 -41 -2 -33 -7
-47 -16 -45 -8 1 -11 -2 -7 -8 3 -6 11 -8 16 -5 14 9 11 -39 -3 -54 -11 -11
-10 -12 0 -7 10 6 12 -3 10 -41 -2 -33 -7 -47 -16 -45 -8 1 -11 -2 -7 -8 3 -6
10 -8 14 -6 4 3 8 -66 9 -152 0 -87 6 -178 12 -202 7 -25 14 -57 17 -73 3 -15
9 -27 14 -27 5 0 9 -6 9 -13 0 -8 20 -36 44 -63 24 -27 42 -53 39 -58 -4 -5
-1 -6 5 -2 7 4 28 -5 47 -20 36 -27 59 -41 152 -90 29 -15 50 -32 47 -36 -3
-5 -12 -4 -20 3 -8 6 -14 8 -14 4 0 -4 8 -14 17 -22 17 -14 17 -14 1 -9 -10 3
-24 -1 -32 -9 -7 -8 -15 -12 -17 -10 -2 2 -5 -8 -6 -22 -1 -24 0 -24 18 7 16
26 22 30 34 20 19 -15 19 -24 2 -17 -7 3 -19 -4 -25 -14 -8 -12 -8 -19 -2 -19
5 0 10 4 10 9 0 5 9 11 20 14 21 5 45 -16 35 -33 -11 -18 3 -11 29 15 23 23
64 26 50 4 -3 -5 -9 -7 -13 -5 -4 3 -13 1 -19 -3 -10 -6 -8 -14 7 -32 15 -19
22 -21 32 -12 9 9 9 16 1 26 -8 10 -9 16 -1 24 8 8 0 17 -29 32 l-40 20 3 -25
c1 -15 -2 -23 -9 -21 -6 2 -10 16 -10 30 1 15 -2 24 -7 22 -4 -3 -10 -1 -14 5
-11 18 24 10 67 -15 24 -14 69 -40 100 -58 32 -17 58 -35 58 -39 0 -9 -62 23
-72 37 -5 6 -8 5 -8 -3 0 -7 -5 -10 -10 -7 -6 4 -7 11 -4 17 4 7 2 8 -4 4 -15
-9 -3 -39 13 -32 15 5 48 -61 35 -69 -6 -3 -10 1 -10 9 0 9 -5 16 -10 16 -6 0
-5 -11 3 -28 8 -15 17 -34 21 -42 3 -8 4 -2 0 14 -5 26 -3 28 10 17 11 -9 16
-10 16 -2 0 6 -4 11 -9 11 -5 0 -8 11 -7 25 2 13 0 22 -4 20 -5 -3 -10 2 -14
10 -6 18 -1 19 25 4 11 -5 17 -14 14 -19 -3 -5 -1 -19 5 -30 7 -14 8 -26 2
-33 -12 -15 -12 -47 0 -47 5 0 7 8 4 18 -5 16 0 18 41 16 27 -1 42 0 36 3 -20
7 -15 19 7 20 11 1 18 -2 15 -7 -3 -4 8 -22 25 -38 20 -21 28 -36 23 -48 -4
-12 -3 -15 6 -10 7 5 10 14 7 21 -3 8 1 19 9 25 11 9 13 7 11 -12 -1 -13 -6
-29 -10 -36 -4 -7 -2 -12 3 -12 6 0 11 5 11 12 0 6 10 2 22 -9 13 -11 29 -18
36 -16 7 3 12 1 11 -4 -4 -21 2 -34 13 -27 8 5 9 2 5 -9 -3 -10 -2 -17 3 -17
5 0 9 10 8 23 0 12 0 27 2 32 5 19 0 36 -9 31 -5 -3 -11 4 -14 16 l-6 21 -19
-23 c-17 -21 -22 -22 -36 -11 -9 7 -16 18 -16 23 0 6 6 5 15 -2 8 -6 19 -9 25
-5 15 9 1 27 -17 21 -8 -3 -12 -2 -9 3 9 13 -20 21 -32 9 -11 -11 -32 -3 -32
12 0 5 8 7 18 4 13 -5 14 -4 3 4 -8 6 -21 7 -30 4 -14 -5 -14 -4 -2 12 11 13
16 14 22 4 5 -7 9 -9 9 -5 0 5 7 1 16 -7 8 -9 20 -14 25 -11 5 4 9 2 9 -4 0
-5 10 -13 23 -16 12 -4 32 -17 45 -29 13 -11 24 -19 25 -17 1 2 12 1 24 -3 17
-5 22 -13 19 -29 -3 -12 -5 -25 -5 -28 -1 -9 -31 -7 -31 3 0 4 4 8 9 8 5 0 11
7 14 14 4 10 1 13 -8 10 -16 -7 -27 -32 -19 -45 3 -5 9 -7 14 -4 5 3 16 -5 24
-17 9 -12 16 -18 17 -13 0 6 4 1 9 -10 6 -16 8 -13 7 15 0 19 -2 29 -4 23 -7
-20 -19 -15 -20 7 -1 11 2 18 7 15 5 -3 11 -1 15 4 8 14 55 -8 55 -26 0 -7 -9
-22 -20 -33 -16 -16 -18 -24 -10 -38 10 -14 11 -14 7 -1 -6 19 11 39 32 39 13
-1 13 -2 -1 -11 -10 -5 -18 -15 -18 -22 0 -7 4 -6 10 3 5 8 12 11 16 7 4 -3 2
-12 -4 -20 -6 -7 -7 -19 -3 -26 10 -16 19 3 16 37 -1 12 3 21 9 19 6 -2 10
-11 8 -21 -2 -9 1 -16 5 -16 5 0 9 9 10 19 1 12 -9 23 -27 31 -18 7 -27 17
-23 26 3 8 9 11 14 8 5 -3 7 -10 4 -15 -4 -5 4 -8 17 -6 15 1 22 -3 20 -11 -1
-8 3 -12 10 -9 17 6 68 -31 68 -49 0 -8 -4 -14 -10 -14 -5 0 -10 9 -10 21 0
16 -4 19 -22 14 -16 -4 -19 -3 -9 3 9 7 10 12 2 16 -6 4 -12 2 -12 -3 -1 -6
-2 -16 -3 -22 0 -7 -10 -15 -21 -20 -11 -4 -15 -8 -8 -8 7 -1 21 -20 32 -44
11 -23 20 -36 21 -29 0 7 -6 21 -12 32 -11 17 -10 22 2 30 21 14 27 12 27 -5
0 -10 -6 -14 -15 -10 -12 5 -13 3 -2 -10 10 -12 15 -13 21 -3 4 6 5 16 2 22
-4 5 1 7 11 3 11 -5 15 -3 10 4 -4 7 -1 10 7 7 8 -3 13 -12 11 -21 -1 -8 7
-18 18 -22 11 -3 20 -11 20 -16 0 -13 -14 -11 -28 3 -7 7 -12 9 -12 4 0 -4 6
-13 13 -20 11 -11 16 -11 32 0 10 8 15 14 11 14 -5 0 -3 6 3 14 8 9 8 16 2 20
-5 4 -12 2 -16 -4 -3 -5 -11 -10 -17 -10 -7 0 -6 5 1 14 8 10 9 16 1 21 -5 3
-10 3 -10 -1 0 -3 -7 -1 -15 6 -8 7 -15 18 -15 24 0 7 3 7 8 1 4 -5 17 -16 30
-22 12 -7 32 -19 45 -25 12 -7 30 -19 40 -27 9 -8 17 -10 17 -5 0 5 4 4 8 -2
4 -6 35 -26 69 -44 35 -17 63 -36 63 -42 0 -5 4 -7 9 -4 5 3 20 -5 35 -19 14
-13 26 -19 26 -14 0 6 7 4 15 -5 8 -8 15 -18 15 -22 0 -3 -7 -1 -15 6 -8 7
-15 8 -15 3 0 -5 -13 -9 -30 -9 -34 0 -34 0 -19 28 9 16 8 19 -2 13 -8 -6 -10
-4 -4 5 5 8 4 11 -3 7 -5 -4 -18 -4 -27 -1 -13 6 -14 9 -3 16 10 7 9 8 -4 4
-10 -3 -25 -3 -34 1 -13 5 -13 7 -2 14 10 7 8 9 -7 10 -11 1 -24 1 -28 0 -5
-1 -6 3 -3 8 3 5 0 11 -8 14 -9 4 -12 -2 -10 -22 2 -18 -4 -36 -16 -49 -11
-12 -20 -24 -20 -28 0 -13 32 20 46 49 22 41 29 26 9 -18 -10 -19 -15 -39 -11
-42 3 -3 6 1 6 11 0 9 6 19 14 22 8 3 12 12 9 20 -4 10 0 12 11 8 9 -3 13 -10
10 -15 -3 -5 3 -6 13 -2 15 5 16 3 6 -8 -15 -15 -17 -39 -4 -39 5 0 8 7 7 16
0 9 5 19 13 22 8 3 11 0 7 -7 -4 -6 2 -23 13 -37 11 -14 17 -33 14 -42 -4 -11
2 -8 18 8 31 31 54 36 56 11 2 -22 -23 -48 -34 -37 -4 4 -1 11 7 16 8 5 12 11
10 14 -3 2 -12 -1 -21 -8 -15 -10 -15 -14 -3 -30 13 -18 14 -18 32 4 13 16 21
20 26 12 4 -7 2 -12 -4 -12 -6 0 -9 -4 -6 -9 3 -5 -1 -12 -10 -15 -9 -4 -14
-9 -11 -13 4 -3 -1 -12 -11 -20 -15 -13 -15 -13 6 -3 12 6 20 15 17 21 -4 5
-2 9 4 9 5 0 11 -6 14 -13 3 -6 5 -3 6 8 2 48 5 56 18 51 8 -3 11 -1 8 4 -3 6
-1 10 6 10 7 0 10 3 7 6 -4 3 -16 1 -27 -6 -19 -9 -21 -8 -18 12 2 12 9 24 15
26 8 2 10 -3 5 -14 -4 -11 -3 -15 4 -11 16 10 43 -3 43 -20 0 -9 -5 -11 -12
-7 -8 5 -7 0 2 -11 14 -16 13 -17 -7 -11 -26 8 -38 -8 -23 -31 9 -16 10 -15 5
5 -6 21 10 33 17 12 2 -5 14 0 28 11 18 14 20 17 6 12 -13 -4 -17 -3 -12 5 13
21 37 14 34 -10 -2 -14 2 -22 10 -21 6 2 12 -2 12 -7 0 -13 -23 -13 -36 0 -7
7 -18 3 -33 -11 -14 -13 -19 -25 -14 -30 11 -11 43 -1 43 13 0 6 -7 5 -15 -2
-23 -19 -28 -6 -5 15 17 16 20 16 26 2 3 -9 12 -13 20 -10 10 4 12 0 8 -10 -3
-9 3 -23 14 -33 11 -9 18 -24 15 -33 -4 -13 -3 -13 7 1 12 19 44 13 33 -6 -4
-7 -1 -6 9 2 8 7 22 10 30 7 12 -5 16 1 16 20 -1 20 -3 24 -10 14 -6 -10 -7
-6 -3 11 4 17 3 21 -3 11 -6 -8 -12 -9 -16 -3 -3 5 1 12 9 16 8 3 18 -2 23
-10 5 -9 13 -15 18 -14 5 1 17 -12 26 -28 16 -29 16 -31 -2 -29 -15 1 -19 7
-16 24 3 12 1 25 -3 28 -5 2 -7 -12 -6 -31 1 -24 -3 -38 -14 -42 -8 -3 -17 0
-19 6 -2 7 -8 12 -14 12 -6 0 -6 -6 2 -15 16 -19 34 -19 50 0 7 8 16 12 21 10
10 -7 -23 -44 -33 -38 -4 2 -5 -3 -1 -13 5 -15 7 -15 16 1 15 28 48 57 55 50
4 -4 -2 -14 -13 -24 -21 -18 -45 -55 -45 -68 0 -5 5 0 11 10 9 15 13 16 27 5
10 -8 13 -8 9 -1 -4 6 4 20 19 32 15 12 23 21 19 21 -4 0 -2 6 4 14 9 11 9 16
0 22 -8 4 -9 3 -5 -5 6 -8 1 -8 -18 0 -14 7 -23 16 -19 22 3 6 1 7 -5 3 -7 -4
-12 -2 -12 3 0 16 20 13 26 -3 3 -8 11 -13 18 -10 16 6 40 -22 31 -36 -4 -6
-1 -18 7 -27 11 -14 10 -15 -8 -9 -14 4 -26 1 -34 -9 -8 -10 -9 -15 -1 -15 6
0 11 4 11 10 0 5 10 9 23 7 13 -1 21 3 20 11 -2 6 2 12 8 12 5 0 7 5 3 11 -4
8 -9 7 -15 -2 -5 -8 -9 -9 -9 -4 0 6 4 16 9 23 7 11 9 11 14 -2 4 -9 10 -15
14 -14 12 3 73 -36 73 -46 0 -5 -3 -6 -7 -3 -3 4 -13 1 -20 -5 -12 -10 -14 -8
-11 8 2 13 -2 19 -15 17 -12 0 -16 4 -13 13 3 8 3 14 0 14 -6 0 -26 -49 -30
-75 -3 -17 -2 -18 6 -4 8 14 28 17 65 9 20 -5 36 0 30 9 -3 5 -1 12 5 16 5 3
10 -1 10 -9 0 -9 5 -16 11 -16 5 0 7 6 3 12 -5 7 5 3 20 -10 16 -12 34 -22 41
-22 7 0 16 -7 19 -16 3 -8 10 -12 16 -9 5 3 10 1 10 -4 0 -6 9 -11 21 -11 11
0 17 -5 14 -10 -4 -7 -13 -7 -26 0 -10 6 -19 7 -19 3 -1 -4 -10 3 -20 16 -11
13 -20 20 -20 16 0 -4 -7 -2 -15 5 -18 15 -60 20 -77 8 -10 -7 -8 -8 5 -4 16
5 23 -10 17 -39 -1 -5 2 -7 5 -3 12 12 45 -11 39 -26 -8 -21 11 -27 32 -10 18
14 18 15 -3 4 -16 -7 -23 -8 -23 0 0 6 7 13 15 16 12 5 13 10 4 20 -9 11 -9
14 0 14 6 0 14 -6 17 -14 3 -8 13 -15 22 -15 9 0 29 -2 44 -4 16 -2 25 0 22 5
-4 6 1 6 12 0 11 -6 22 -10 27 -11 4 -1 10 -2 15 -2 4 -1 13 -2 21 -3 8 0 17
-8 19 -16 5 -13 3 -13 -14 0 -10 8 -16 10 -12 6 4 -5 3 -15 -3 -22 -11 -14 -4
-34 12 -34 5 0 9 5 9 11 0 5 -5 7 -11 3 -7 -4 -10 -1 -7 6 6 20 40 21 61 3 17
-16 17 -17 -5 -30 -13 -7 -17 -12 -10 -13 8 0 26 10 40 22 15 11 19 18 10 15
-9 -3 -22 0 -28 8 -9 10 -4 13 27 11 20 -2 39 -9 41 -16 3 -7 0 -10 -7 -6 -6
4 -11 2 -11 -3 0 -17 11 -13 37 11 13 12 23 17 23 11 0 -5 -9 -18 -20 -28 -21
-19 -27 -50 -11 -59 4 -3 6 7 3 22 -3 15 -1 23 4 19 5 -5 9 -14 9 -19 0 -6 7
-13 15 -15 13 -4 13 -3 0 6 -8 6 -11 11 -6 11 5 0 3 6 -3 14 -9 10 -8 16 3 25
8 7 14 21 13 31 -1 13 -5 16 -13 10 -6 -6 -15 -6 -19 -2 -5 4 -5 1 -1 -5 8
-14 -10 -18 -18 -4 -3 4 -17 7 -31 6 -14 -2 -27 1 -30 6 -3 4 14 8 37 8 61 0
95 7 123 25 14 9 25 14 25 11 0 -3 20 6 45 19 25 14 45 21 45 15 0 -5 -7 -12
-15 -15 -8 -4 -15 -12 -15 -18 0 -8 -14 -13 -35 -13 -19 0 -43 -7 -53 -16 -10
-10 -22 -14 -25 -10 -4 3 -7 1 -7 -5 0 -7 7 -12 15 -12 8 0 15 5 15 12 0 18
29 -25 30 -44 0 -25 16 -30 31 -10 13 15 12 16 -3 3 -16 -12 -18 -11 -18 3 0
9 -7 28 -16 41 -9 14 -12 25 -6 25 6 0 15 -7 20 -16 7 -13 13 -14 28 -5 19 11
19 11 0 9 -10 -2 -21 2 -23 9 -3 8 3 11 17 8 25 -5 52 4 45 15 -3 4 3 14 12
21 14 12 15 11 10 -6 -9 -26 30 -55 39 -30 3 8 11 12 18 8 6 -4 5 1 -3 11 -8
9 -21 14 -29 11 -10 -4 -12 0 -8 10 3 9 2 13 -4 10 -6 -3 -10 3 -10 14 0 12 5
21 11 21 5 0 7 -4 4 -10 -3 -6 1 -7 10 -4 11 5 14 2 9 -10 -3 -9 -1 -16 5 -16
7 0 21 -9 33 -20 12 -11 26 -20 31 -20 5 0 -7 14 -28 30 -23 18 -31 30 -22 30
9 0 19 -4 22 -10 8 -13 25 -13 25 0 0 5 -5 9 -11 7 -6 -1 -14 4 -16 11 -3 8 1
10 11 6 9 -3 16 -1 16 6 0 6 -5 8 -10 5 -6 -3 -10 -1 -10 6 0 7 -6 5 -13 -6
-9 -11 -19 -15 -26 -10 -9 5 -1 15 25 30 21 13 42 21 46 19 5 -3 8 0 8 5 0 6
7 11 16 11 9 0 12 5 8 12 -4 7 -3 8 4 4 7 -4 12 -2 12 4 0 6 4 9 9 6 5 -4 11
-3 13 2 5 12 78 52 78 42 0 -4 -3 -10 -7 -13 -5 -2 -3 -2 4 -1 6 2 14 -4 17
-12 3 -9 10 -13 15 -10 5 3 12 -1 15 -10 3 -9 12 -14 20 -11 8 3 17 3 20 -1
11 -10 36 -11 36 -1 0 5 -4 9 -10 9 -5 0 -7 8 -4 17 5 15 4 15 -4 4 -6 -8 -20
-16 -33 -18 -17 -3 -19 -1 -10 10 9 12 6 14 -14 11 -16 -1 -25 2 -22 9 5 17
47 15 58 -2 8 -14 9 -13 7 3 -2 10 3 21 11 24 8 3 11 0 7 -7 -5 -7 -1 -9 9 -5
11 5 14 2 9 -12 -5 -18 -5 -18 9 -2 8 10 18 14 22 10 5 -4 5 -2 1 5 -3 6 0 15
8 20 12 7 12 11 1 27 -14 19 -41 13 -29 -6 5 -8 1 -9 -12 -4 -15 6 -16 5 -7
-5 10 -10 15 -9 28 1 8 7 15 8 15 2 0 -5 -6 -14 -13 -20 -19 -16 -54 11 -52
40 2 19 7 23 33 21 17 -2 34 1 37 7 4 6 -1 7 -12 3 -13 -4 -15 -3 -8 5 12 13
55 5 55 -10 0 -5 -4 -7 -9 -3 -17 10 -20 -9 -6 -35 12 -22 14 -22 13 -5 0 11
3 28 7 37 5 12 2 20 -9 24 -9 3 -16 10 -16 15 0 6 8 6 19 0 10 -6 21 -7 25 -4
9 9 3 -29 -7 -44 -8 -13 11 -59 20 -49 3 3 0 12 -7 21 -19 23 3 43 43 39 22
-3 27 -1 18 5 -8 5 -21 7 -30 4 -13 -4 -13 -2 2 10 9 8 17 19 17 26 0 14 13
14 28 -1 9 -9 15 -9 25 1 10 11 9 13 -5 8 -10 -3 -20 -2 -23 2 -7 12 21 22 41
14 14 -5 13 -3 -2 15 -19 22 -30 29 -20 13 3 -5 -2 -8 -12 -7 -9 0 -16 -5 -14
-12 2 -10 -4 -12 -20 -7 -18 5 -20 4 -8 -4 11 -8 12 -11 2 -11 -7 0 -11 -4 -8
-9 3 -5 -2 -15 -11 -22 -15 -12 -16 -12 -11 3 8 21 -2 31 -18 17 -8 -7 -14 -7
-19 1 -3 5 0 10 9 10 8 0 17 6 19 13 4 10 6 10 6 0 1 -7 5 -13 11 -13 5 0 7 7
4 15 -4 9 0 15 10 15 9 0 16 5 16 11 0 5 4 8 9 4 5 -3 16 1 24 9 8 8 18 12 21
8 4 -3 19 -6 33 -7 15 0 28 -5 30 -12 3 -8 -4 -10 -21 -7 -25 4 -26 4 -9 -16
21 -24 24 -25 17 -6 -4 10 0 13 13 11 10 -2 22 -4 26 -4 5 -1 5 -5 2 -11 -3
-5 0 -7 9 -4 11 4 14 0 11 -15 -3 -14 0 -18 12 -14 10 4 11 8 3 13 -6 4 -12
11 -12 16 1 5 -9 14 -20 20 l-21 12 22 11 c17 9 26 10 36 1 15 -13 39 -4 30
10 -3 5 10 20 29 32 20 13 36 27 36 31 0 5 -4 5 -10 2 -5 -3 -10 -2 -10 4 0
18 20 23 26 7 3 -9 9 -14 14 -11 4 2 12 -7 18 -20 11 -24 42 -26 42 -3 0 6 -8
4 -17 -3 -15 -12 -16 -12 -9 6 4 11 4 17 1 13 -9 -8 -54 34 -49 47 3 6 13 11
24 11 14 0 18 -5 15 -17 -3 -10 -2 -20 4 -23 12 -8 41 3 41 16 0 6 -7 5 -15
-2 -9 -7 -19 -9 -23 -5 -4 4 -1 10 7 13 7 2 21 12 30 21 19 18 51 26 51 13 0
-16 46 -31 61 -20 12 8 12 9 -1 5 -8 -2 -23 0 -33 5 -13 7 -15 13 -7 27 5 10
7 21 4 23 -8 9 25 30 36 23 6 -4 16 -17 21 -29 8 -18 9 -17 4 7 -3 15 -1 27 5
27 5 0 10 -4 10 -10 0 -5 5 -10 11 -10 8 0 7 5 -2 16 -11 13 -9 14 13 9 21 -5
29 -2 38 15 9 17 14 19 26 9 10 -8 14 -8 14 0 0 6 -5 11 -12 11 -6 0 -8 3 -5
7 4 3 -1 12 -11 20 -16 14 -16 14 1 9 9 -3 24 -3 32 0 11 5 12 10 3 24 -7 10
-15 17 -19 14 -4 -2 -11 1 -15 7 -4 8 -3 9 4 5 7 -4 12 -2 12 6 0 7 7 2 16
-10 9 -13 22 -21 30 -18 7 3 18 -3 23 -12 6 -9 10 -12 11 -7 0 22 -17 36 -35
28 -17 -6 -18 -5 -5 8 20 21 38 19 46 -4 6 -18 7 -19 16 -3 5 9 13 14 19 11 5
-4 19 1 31 11 20 14 20 15 3 9 -11 -4 -26 -7 -32 -6 -37 3 -43 5 -43 12 0 14
18 20 25 8 4 -5 14 -7 24 -3 9 4 27 6 41 6 l25 -1 -24 10 c-32 13 -21 22 12
10 22 -9 25 -8 20 7 -5 14 -3 15 8 4 16 -15 29 -16 29 -2 0 5 -5 9 -11 7 -6
-1 -13 3 -15 8 -2 6 5 11 16 12 12 1 20 -5 21 -15 0 -12 3 -11 9 6 5 12 14 22
20 22 7 0 7 -6 0 -21 -7 -11 -9 -24 -5 -27 3 -3 8 4 12 16 3 12 9 22 13 22 5
0 12 9 15 20 4 11 11 18 16 15 5 -3 6 1 3 9 -3 9 -1 16 5 16 6 0 11 -6 11 -12
0 -9 3 -8 9 2 6 8 8 17 6 20 -2 4 11 7 30 7 19 0 32 -4 29 -9 -3 -4 0 -8 6 -8
7 0 9 7 6 16 -3 9 -6 18 -6 21 0 3 -7 0 -15 -7 -11 -9 -15 -9 -15 -1 0 21 32
25 46 6 8 -10 17 -15 21 -11 4 4 1 11 -6 15 -8 5 -9 11 -3 15 5 3 15 -1 22 -9
10 -12 10 -18 0 -30 -9 -11 -10 -19 -3 -26 8 -8 13 -7 18 2 5 8 4 10 -3 5 -16
-10 -14 5 3 28 8 11 15 14 15 8 0 -7 5 -12 11 -12 6 0 0 15 -15 34 -33 44 -34
57 -1 26 21 -20 27 -21 42 -9 10 7 19 14 21 15 5 3 -48 54 -55 54 -3 0 1 -7 8
-17 12 -14 12 -16 -1 -11 -23 7 -23 35 0 41 11 3 23 5 27 5 3 0 9 4 12 9 3 5
20 19 37 31 29 20 33 20 38 5 8 -19 -8 -40 -18 -24 -4 6 -2 11 5 11 7 0 10 2
7 5 -3 3 -13 3 -22 -1 -13 -5 -10 -11 19 -34 19 -15 31 -30 27 -34 -3 -4 2 -4
12 0 16 6 15 8 -8 23 -24 16 -25 18 -9 34 10 9 13 17 7 17 -16 0 -13 28 4 35
10 3 12 0 8 -10 -3 -8 -2 -14 2 -14 19 3 22 -2 8 -17 -18 -18 -21 -34 -5 -34
5 0 8 4 5 9 -3 5 1 14 9 21 7 6 11 19 8 27 -4 11 -2 14 5 9 6 -3 15 2 21 11 5
10 12 15 15 12 3 -3 -6 -22 -20 -42 -32 -47 -25 -48 11 -1 21 27 25 38 15 47
-9 9 -14 8 -23 -3 -14 -18 -37 -24 -37 -10 0 6 7 10 15 10 8 0 15 4 15 9 0 5
10 13 23 16 12 4 37 19 55 32 31 23 34 24 46 7 10 -13 15 -14 21 -4 5 8 4 11
-2 7 -6 -4 -13 2 -16 13 -3 13 1 21 12 25 10 3 24 17 31 30 7 14 16 23 18 20
6 -6 46 76 44 88 -1 4 2 7 7 7 5 0 12 16 15 35 5 24 11 33 19 28 9 -5 9 -3 1
8 -5 8 -9 20 -8 27 1 6 2 17 3 23 0 5 7 7 14 3 9 -6 9 -5 0 7 -18 22 -13 375
5 371 8 -1 11 2 7 8 -3 6 -11 8 -16 5 -15 -10 -12 278 4 294 10 11 9 13 -1 7
-10 -6 -12 27 -10 161 2 133 6 167 16 165 8 -1 11 2 7 8 -3 6 -11 8 -16 5 -15
-10 -12 278 4 294 10 11 9 12 -1 7 -10 -6 -13 27 -11 173 1 130 5 179 13 174
6 -3 5 0 -1 8 -9 9 -13 50 -13 127 0 88 3 112 13 106 10 -6 10 -4 0 7 -17 17
-18 83 -1 73 8 -5 8 -3 2 7 -11 17 -14 120 -3 114 4 -3 11 -1 14 5 4 6 1 9 -7
8 -10 -2 -13 23 -14 117 -3 245 -61 347 -261 463 -57 32 -99 63 -95 67 4 5 2
5 -4 2 -6 -3 -37 10 -70 30 -32 19 -69 39 -81 44 -13 5 -23 14 -23 20 0 7 -3
9 -6 6 -10 -10 -45 13 -39 24 4 5 3 8 -2 7 -12 -4 -83 24 -83 33 0 4 -8 9 -17
12 -10 4 -43 21 -73 39 -80 47 -461 267 -525 303 -30 17 -60 36 -67 43 -7 7
-18 12 -25 12 -7 0 -22 9 -33 20 -11 11 -20 18 -20 15 0 -7 -60 23 -80 40 -8
7 -37 25 -65 40 -27 14 -63 34 -80 44 -102 61 -209 121 -216 121 -5 0 -9 3 -9
8 0 4 -15 13 -32 21 -18 8 -35 17 -38 20 -6 7 -32 22 -91 53 -21 11 -39 23
-39 27 0 4 -6 8 -12 8 -7 0 -42 17 -78 38 -110 66 -230 89 -333 64z m-1907
-4360 c0 -6 -4 -7 -10 -4 -5 3 -10 11 -10 16 0 6 5 7 10 4 6 -3 10 -11 10 -16z
m50 -3 c0 -3 -4 -8 -10 -11 -5 -3 -10 -1 -10 4 0 6 5 11 10 11 6 0 10 -2 10
-4z m3899 -32 c13 9 26 -13 14 -25 -6 -6 -18 -2 -33 11 -12 11 -26 17 -31 14
-18 -11 -49 -13 -49 -3 0 6 6 9 12 7 7 -3 19 2 27 9 11 12 16 11 32 -3 10 -9
22 -13 28 -10z m-3863 -41 c-4 -4 -11 -1 -16 7 -16 25 -11 35 7 17 9 -9 13
-20 9 -24z m3750 22 c-5 -15 2 -13 34 6 7 4 50 -34 50 -45 0 -5 -9 -1 -19 8
-13 12 -21 14 -26 6 -3 -5 -11 -7 -17 -4 -14 9 -59 -17 -51 -30 4 -6 -1 -5
-10 3 -17 13 -22 7 -18 -21 0 -4 -6 -5 -13 -2 -9 4 -21 -6 -31 -26 -13 -24
-19 -29 -29 -20 -10 8 -15 7 -19 -3 -3 -8 -16 -13 -29 -12 -13 2 -30 -6 -39
-18 -16 -20 -39 -16 -39 6 0 15 80 62 99 58 8 -1 10 2 5 10 -4 8 -3 10 4 5 7
-4 12 -3 12 3 0 6 7 7 17 4 10 -4 14 -2 9 5 -9 16 12 26 28 13 11 -9 14 -8 12
6 -1 13 5 17 21 15 12 -2 24 2 28 7 4 7 -1 9 -12 6 -10 -3 -8 0 5 6 12 7 22
16 22 21 0 4 3 8 6 8 3 0 4 -7 0 -15z m-3606 -61 c-6 -6 -7 -14 -3 -17 3 -4 2
-7 -4 -7 -15 0 -23 36 -10 49 14 14 30 -9 17 -25z m44 -6 c-3 -4 -12 -4 -22
-1 -9 3 -14 3 -10 -1 9 -11 42 -14 48 -5 3 4 14 1 25 -7 15 -11 16 -16 6 -27
-10 -10 -12 -9 -9 3 2 11 -7 15 -34 15 -26 0 -34 -3 -27 -11 7 -8 2 -11 -16
-11 -25 0 -25 0 -9 18 9 11 14 19 9 19 -4 0 -2 6 4 13 6 8 7 17 3 22 -4 4 3 2
15 -6 12 -7 20 -16 17 -21z m3292 -105 c-10 -10 -19 5 -10 18 6 11 8 11 12 0
2 -7 1 -15 -2 -18z m-12 -26 c-9 -5 -20 -4 -29 3 -10 8 -17 6 -29 -12 -9 -12
-16 -19 -16 -14 0 5 -9 1 -20 -9 -11 -10 -20 -13 -20 -7 0 7 5 12 11 12 5 0 7
5 3 12 -4 7 -3 8 4 4 7 -4 12 -2 12 5 0 7 3 10 6 6 4 -3 13 1 21 9 8 8 19 12
24 9 5 -4 9 -1 9 4 0 8 7 7 20 -1 17 -11 17 -14 4 -21z m-3072 -34 c-4 -14
-23 -18 -21 -5 4 26 -1 34 -16 22 -17 -14 -21 0 -4 17 14 14 48 -15 41 -34z
m88 -3 c0 -5 -2 -10 -4 -10 -3 0 -8 5 -11 10 -3 6 -1 10 4 10 6 0 11 -4 11
-10z m2853 -29 c4 0 7 -5 7 -11 0 -5 -13 -7 -30 -5 -16 2 -30 0 -30 -4 0 -4
-7 -8 -15 -8 -9 0 -14 5 -12 11 3 6 10 10 16 9 6 -2 11 1 11 6 0 7 19 8 53 2z
m-88 -51 c-2 -3 5 -12 17 -19 11 -7 17 -8 13 -2 -3 6 -1 11 4 11 6 0 11 5 11
11 0 8 -5 8 -15 -1 -12 -10 -15 -10 -15 2 0 15 36 22 45 8 10 -17 -19 -51 -39
-46 -11 3 -28 0 -38 -5 -13 -7 -23 -7 -32 0 -8 7 -16 4 -26 -12 -13 -21 -16
-26 -19 -44 0 -5 -21 -8 -46 -9 -36 0 -45 3 -40 14 4 12 3 13 -10 2 -8 -7 -15
-9 -15 -4 0 5 13 17 30 26 28 16 29 16 35 -2 3 -11 14 -18 25 -17 13 1 16 5
10 11 -12 12 -13 27 -2 25 17 -3 32 2 32 10 0 15 -32 6 -46 -14 -8 -10 -14
-14 -14 -8 0 14 28 43 42 43 5 0 22 9 38 20 15 11 30 17 34 13 3 -3 6 0 6 8 0
12 2 12 9 -1 6 -8 8 -17 6 -20z m-2609 -56 c-11 -7 -22 -11 -25 -8 -3 3 3 12
13 20 11 7 22 11 25 8 3 -3 -3 -12 -13 -20z m2399 -53 c-2 -5 7 -7 20 -5 28 3
42 -11 20 -20 -8 -3 -17 -1 -20 4 -3 5 -12 7 -20 3 -10 -3 -15 2 -15 17 0 12
4 18 10 15 6 -4 8 -10 5 -14z m-25 -10 c0 -4 -9 -20 -21 -35 -11 -14 -18 -30
-15 -34 3 -5 -8 -19 -25 -31 -16 -12 -27 -27 -23 -33 4 -6 1 -9 -6 -6 -23 7
-22 26 0 33 18 6 19 9 8 22 -11 14 -10 15 12 9 19 -6 21 -5 10 3 -10 7 -11 11
-2 11 6 0 12 7 12 16 0 9 5 12 12 8 6 -4 8 -3 5 4 -10 15 3 42 19 42 8 0 14
-4 14 -9z m-50 -21 c0 -22 -41 -51 -63 -45 -12 4 -17 3 -12 -2 20 -16 15 -42
-11 -59 -25 -17 -27 -17 -45 7 -16 20 -18 21 -13 4 6 -16 4 -18 -6 -8 -16 15
-4 34 17 26 12 -5 14 -3 8 7 -6 9 -4 11 4 6 7 -5 10 -14 7 -22 -3 -7 -1 -16 3
-19 12 -7 28 16 28 37 0 14 -3 15 -14 7 -7 -6 -13 -7 -13 -2 0 10 81 59 93 55
4 -1 7 3 7 8 0 6 2 10 5 10 3 0 5 -4 5 -10z m-40 -70 c0 -5 -2 -10 -4 -10 -3
0 -8 5 -11 10 -3 6 -1 10 4 10 6 0 11 -4 11 -10z m-59 -23 c-10 -9 -11 -8 -5
6 3 10 9 15 12 12 3 -3 0 -11 -7 -18z m-1881 -7 c0 -5 -4 -10 -10 -10 -5 0
-10 5 -10 10 0 6 5 10 10 10 6 0 10 -4 10 -10z m25 -40 c3 -5 1 -10 -4 -10 -6
0 -11 5 -11 10 0 6 2 10 4 10 3 0 8 -4 11 -10z m271 -105 c-2 -5 5 -22 15 -36
20 -28 23 -26 -36 -20 -5 1 -2 8 8 15 15 12 15 14 2 19 -9 4 -12 13 -9 24 5
15 4 16 -6 3 -10 -13 -11 -12 -6 3 3 10 2 16 -3 12 -5 -3 -12 1 -15 7 -3 7 -3
3 0 -9 4 -18 2 -22 -10 -17 -9 3 -13 10 -10 15 2 5 0 18 -6 29 -9 18 -5 17 35
-7 25 -16 43 -32 41 -38z m-50 -22 c13 -17 14 -17 7 2 -6 18 -5 18 10 7 13
-11 14 -17 4 -27 -10 -11 -15 -10 -29 2 -18 16 -24 33 -12 33 4 0 13 -8 20
-17z m1300 -5 c-1 -19 -6 -23 -31 -22 -16 1 -33 -3 -37 -10 -5 -7 -8 -5 -8 7
0 9 7 17 15 17 8 0 15 5 15 10 0 6 5 10 11 10 5 0 7 -6 4 -12 -3 -7 0 -5 7 5
17 23 25 22 24 -5z m-1115 -86 c-12 -22 -41 -48 -41 -36 0 8 40 54 47 54 2 0
-1 -8 -6 -18z m101 -39 c-6 -2 -10 -9 -7 -13 3 -5 -4 -8 -15 -7 -20 1 -20 2
-4 14 10 7 23 13 28 12 6 0 5 -3 -2 -6z m93 -64 c-4 -6 0 -9 10 -7 12 2 19 -5
21 -20 4 -22 3 -22 -21 -6 -26 17 -30 26 -18 37 10 11 15 8 8 -4z m608 -45
c-4 -11 -9 -12 -19 -3 -18 15 -18 14 5 16 14 1 18 -3 14 -13z m-333 -34 c0 -5
-2 -10 -4 -10 -3 0 -8 5 -11 10 -3 6 -1 10 4 10 6 0 11 -4 11 -10z"/>
<path d="M4733 1205 c0 -8 4 -12 9 -9 5 3 6 10 3 15 -9 13 -12 11 -12 -6z"/>
<path d="M4696 1181 c-3 -5 1 -11 9 -15 15 -6 29 7 18 18 -9 9 -21 8 -27 -3z"/>
<path d="M4651 1163 c-5 -10 -13 -18 -18 -17 -12 2 -43 -20 -43 -30 0 -5 10 0
23 12 13 12 26 19 30 16 4 -4 10 1 13 10 5 14 9 15 15 4 6 -9 9 -9 9 -1 0 20
-18 24 -29 6z"/>
<path d="M4282 952 l-22 -17 35 -1 c30 0 33 2 23 15 -7 9 -13 17 -13 18 0 1
-10 -6 -23 -15z"/>
<path d="M4170 880 c0 -5 5 -10 11 -10 5 0 7 5 4 10 -3 6 -8 10 -11 10 -2 0
-4 -4 -4 -10z"/>
<path d="M4006 795 c-11 -8 -15 -15 -9 -15 6 0 16 7 23 15 16 19 11 19 -14 0z"/>
<path d="M5454 3916 c1 -8 5 -18 8 -22 4 -3 5 1 4 10 -1 8 -5 18 -8 22 -4 3
-5 -1 -4 -10z"/>
<path d="M556 3867 c3 -10 9 -15 12 -12 3 3 0 11 -7 18 -10 9 -11 8 -5 -6z"/>
<path d="M5419 3673 c-13 -16 -12 -17 4 -4 16 13 21 21 13 21 -2 0 -10 -8 -17
-17z"/>
<path d="M545 3640 c-3 -6 1 -7 9 -4 18 7 21 14 7 14 -6 0 -13 -4 -16 -10z"/>
<path d="M5433 3625 c0 -8 4 -12 9 -9 5 3 6 10 3 15 -9 13 -12 11 -12 -6z"/>
<path d="M540 3606 c0 -2 8 -10 18 -17 15 -13 16 -12 3 4 -13 16 -21 21 -21
13z"/>
<path d="M5414 3560 c0 -13 4 -16 10 -10 7 7 7 13 0 20 -6 6 -10 3 -10 -10z"/>
<path d="M573 3555 c0 -8 4 -12 9 -9 5 3 6 10 3 15 -9 13 -12 11 -12 -6z"/>
<path d="M5430 3526 c0 -2 7 -7 16 -10 8 -3 12 -2 9 4 -6 10 -25 14 -25 6z"/>
<path d="M535 3500 c3 -5 8 -10 11 -10 2 0 4 5 4 10 0 6 -5 10 -11 10 -5 0 -7
-4 -4 -10z"/>
<path d="M535 3460 c3 -5 8 -10 11 -10 2 0 4 5 4 10 0 6 -5 10 -11 10 -5 0 -7
-4 -4 -10z"/>
<path d="M579 3378 c-5 -18 -6 -38 -1 -34 7 8 12 36 6 36 -2 0 -4 -1 -5 -2z"/>
<path d="M5419 3353 c-13 -17 -13 -17 6 -3 11 8 22 16 24 17 2 2 0 3 -6 3 -6
0 -17 -8 -24 -17z"/>
<path d="M5440 3300 c-12 -7 -10 -9 7 -7 12 0 19 5 17 9 -6 10 -6 10 -24 -2z"/>
<path d="M5419 3233 c-13 -16 -12 -17 4 -4 16 13 21 21 13 21 -2 0 -10 -8 -17
-17z"/>
<path d="M5433 3186 c0 -15 22 -15 34 0 4 5 4 6 -1 2 -5 -4 -14 -3 -21 2 -8 7
-12 5 -12 -4z"/>
<path d="M545 3160 c-3 -6 1 -7 9 -4 18 7 21 14 7 14 -6 0 -13 -4 -16 -10z"/>
<path d="M5450 3139 c0 -5 5 -7 10 -4 6 3 10 8 10 11 0 2 -4 4 -10 4 -5 0 -10
-5 -10 -11z"/>
<path d="M579 3138 c-5 -18 -6 -38 -1 -34 7 8 12 36 6 36 -2 0 -4 -1 -5 -2z"/>
<path d="M5433 3105 c0 -8 4 -12 9 -9 5 3 6 10 3 15 -9 13 -12 11 -12 -6z"/>
<path d="M5470 3080 c0 -5 5 -10 11 -10 5 0 7 5 4 10 -3 6 -8 10 -11 10 -2 0
-4 -4 -4 -10z"/>
<path d="M5419 3033 c-12 -16 -12 -17 2 -6 9 7 20 9 24 5 5 -4 5 -1 1 6 -9 16
-11 15 -27 -5z"/>
<path d="M556 3022 c-3 -5 1 -9 9 -9 8 0 12 4 9 9 -3 4 -7 8 -9 8 -2 0 -6 -4
-9 -8z"/>
<path d="M5435 3000 c-3 -5 -1 -10 4 -10 6 0 11 5 11 10 0 6 -2 10 -4 10 -3 0
-8 -4 -11 -10z"/>
<path d="M5475 2991 c-3 -5 -2 -12 3 -15 5 -3 9 1 9 9 0 17 -3 19 -12 6z"/>
<path d="M5433 2965 c0 -8 4 -12 9 -9 5 3 6 10 3 15 -9 13 -12 11 -12 -6z"/>
<path d="M5419 2913 c-13 -17 -13 -17 6 -3 11 8 22 16 24 17 2 2 0 3 -6 3 -6
0 -17 -8 -24 -17z"/>
<path d="M5470 2919 c0 -5 5 -7 10 -4 6 3 10 8 10 11 0 2 -4 4 -10 4 -5 0 -10
-5 -10 -11z"/>
<path d="M579 2898 c-5 -18 -6 -38 -1 -34 7 8 12 36 6 36 -2 0 -4 -1 -5 -2z"/>
<path d="M5450 2860 c0 -5 5 -10 11 -10 5 0 7 5 4 10 -3 6 -8 10 -11 10 -2 0
-4 -4 -4 -10z"/>
<path d="M5450 2819 c0 -5 5 -7 10 -4 6 3 10 8 10 11 0 2 -4 4 -10 4 -5 0 -10
-5 -10 -11z"/>
<path d="M515 2760 c3 -5 8 -10 11 -10 2 0 4 5 4 10 0 6 -5 10 -11 10 -5 0 -7
-4 -4 -10z"/>
<path d="M559 2748 c-5 -18 -6 -38 -1 -34 7 8 12 36 6 36 -2 0 -4 -1 -5 -2z"/>
<path d="M439 2713 c-13 -16 -12 -17 4 -4 9 7 17 15 17 17 0 8 -8 3 -21 -13z"/>
<path d="M5419 2713 c-13 -17 -13 -17 6 -3 11 8 22 16 24 17 2 2 0 3 -6 3 -6
0 -17 -8 -24 -17z"/>
<path d="M5440 2660 c-12 -7 -10 -9 7 -7 12 0 19 5 17 9 -6 10 -6 10 -24 -2z"/>
<path d="M567 2639 c7 -7 15 -10 18 -7 3 3 -2 9 -12 12 -14 6 -15 5 -6 -5z"/>
<path d="M536 2622 c-3 -5 1 -9 9 -9 8 0 12 4 9 9 -3 4 -7 8 -9 8 -2 0 -6 -4
-9 -8z"/>
<path d="M5419 2593 c-13 -16 -12 -17 4 -4 16 13 21 21 13 21 -2 0 -10 -8 -17
-17z"/>
<path d="M5433 2546 c0 -15 22 -15 34 0 4 5 4 6 -1 2 -5 -4 -14 -3 -21 2 -8 7
-12 5 -12 -4z"/>
<path d="M5450 2499 c0 -5 5 -7 10 -4 6 3 10 8 10 11 0 2 -4 4 -10 4 -5 0 -10
-5 -10 -11z"/>
<path d="M5433 2465 c0 -8 4 -12 9 -9 5 3 6 10 3 15 -9 13 -12 11 -12 -6z"/>
<path d="M536 2458 c3 -5 10 -6 15 -3 13 9 11 12 -6 12 -8 0 -12 -4 -9 -9z"/>
<path d="M5470 2440 c0 -5 5 -10 11 -10 5 0 7 5 4 10 -3 6 -8 10 -11 10 -2 0
-4 -4 -4 -10z"/>
<path d="M5419 2393 c-12 -16 -12 -17 2 -6 9 7 20 9 24 5 5 -4 5 -1 1 6 -9 16
-11 15 -27 -5z"/>
<path d="M5435 2360 c-3 -5 -1 -10 4 -10 6 0 11 5 11 10 0 6 -2 10 -4 10 -3 0
-8 -4 -11 -10z"/>
<path d="M5475 2351 c-3 -5 -2 -12 3 -15 5 -3 9 1 9 9 0 17 -3 19 -12 6z"/>
<path d="M5433 2325 c0 -8 4 -12 9 -9 5 3 6 10 3 15 -9 13 -12 11 -12 -6z"/>
<path d="M567 2319 c7 -7 15 -10 18 -7 3 3 -2 9 -12 12 -14 6 -15 5 -6 -5z"/>
<path d="M536 2302 c-3 -5 1 -9 9 -9 8 0 12 4 9 9 -3 4 -7 8 -9 8 -2 0 -6 -4
-9 -8z"/>
<path d="M5419 2273 c-13 -17 -13 -17 6 -3 11 8 22 16 24 17 2 2 0 3 -6 3 -6
0 -17 -8 -24 -17z"/>
<path d="M5470 2279 c0 -5 5 -7 10 -4 6 3 10 8 10 11 0 2 -4 4 -10 4 -5 0 -10
-5 -10 -11z"/>
<path d="M5450 2220 c0 -5 5 -10 11 -10 5 0 7 5 4 10 -3 6 -8 10 -11 10 -2 0
-4 -4 -4 -10z"/>
<path d="M5450 2179 c0 -5 5 -7 10 -4 6 3 10 8 10 11 0 2 -4 4 -10 4 -5 0 -10
-5 -10 -11z"/>
<path d="M5419 2073 c-13 -17 -13 -17 6 -3 11 8 22 16 24 17 2 2 0 3 -6 3 -6
0 -17 -8 -24 -17z"/>
<path d="M535 2060 c3 -5 8 -10 11 -10 2 0 4 5 4 10 0 6 -5 10 -11 10 -5 0 -7
-4 -4 -10z"/>
<path d="M535 2020 c3 -5 8 -10 11 -10 2 0 4 5 4 10 0 6 -5 10 -11 10 -5 0 -7
-4 -4 -10z"/>
<path d="M5440 2020 c-12 -7 -10 -9 7 -7 12 0 19 5 17 9 -6 10 -6 10 -24 -2z"/>
<path d="M5510 2001 c0 -6 4 -13 10 -16 6 -3 7 1 4 9 -7 18 -14 21 -14 7z"/>
<path d="M5414 1960 c0 -13 4 -16 10 -10 7 7 7 13 0 20 -6 6 -10 3 -10 -10z"/>
<path d="M569 1923 c-13 -16 -12 -17 4 -4 9 7 17 15 17 17 0 8 -8 3 -21 -13z"/>
<path d="M5435 1899 c-3 -4 2 -6 10 -5 21 3 28 13 10 13 -9 0 -18 -4 -20 -8z"/>
<path d="M559 1868 c-5 -18 -6 -39 -2 -34 4 3 13 0 22 -6 12 -10 12 -7 -2 8
-9 11 -14 24 -10 27 3 4 3 7 0 7 -4 0 -7 -1 -8 -2z"/>
<path d="M5450 1859 c0 -5 5 -7 10 -4 6 3 10 8 10 11 0 2 -4 4 -10 4 -5 0 -10
-5 -10 -11z"/>
<path d="M553 1795 c0 -8 4 -12 9 -9 5 3 6 10 3 15 -9 13 -12 11 -12 -6z"/>
<path d="M564 1762 c4 -3 14 -7 22 -8 9 -1 13 0 10 4 -4 3 -14 7 -22 8 -9 1
-13 0 -10 -4z"/>
<path d="M570 1721 c0 -6 4 -13 10 -16 6 -3 7 1 4 9 -7 18 -14 21 -14 7z"/>
<path d="M5466 1722 c-3 -5 1 -9 9 -9 8 0 12 4 9 9 -3 4 -7 8 -9 8 -2 0 -6 -4
-9 -8z"/>
<path d="M536 1687 c3 -10 9 -15 12 -12 3 3 0 11 -7 18 -10 9 -11 8 -5 -6z"/>
<path d="M5388 1659 c6 -9 9 -18 6 -22 -3 -3 1 -4 10 -3 8 1 18 5 21 9 3 4 2
5 -2 2 -3 -3 -16 3 -27 12 -15 14 -18 14 -8 2z"/>
<path d="M596 1633 c-6 -14 -5 -15 5 -6 7 7 10 15 7 18 -3 3 -9 -2 -12 -12z"/>
<path d="M5353 1625 c0 -8 4 -15 9 -15 4 0 8 4 8 9 0 6 -4 12 -8 15 -5 3 -9
-1 -9 -9z"/>
<path d="M633 1605 c0 -8 4 -15 9 -15 4 0 8 4 8 9 0 6 -4 12 -8 15 -5 3 -9 -1
-9 -9z"/>
<path d="M5379 1593 c-13 -16 -12 -17 4 -4 9 7 17 15 17 17 0 8 -8 3 -21 -13z"/>
<path d="M553 1575 c0 -8 4 -12 9 -9 5 3 6 10 3 15 -9 13 -12 11 -12 -6z"/>
<path d="M670 1565 c0 -8 2 -15 4 -15 2 0 6 7 10 15 3 8 1 15 -4 15 -6 0 -10
-7 -10 -15z"/>
<path d="M5413 1535 c0 -8 4 -12 9 -9 5 3 6 10 3 15 -9 13 -12 11 -12 -6z"/>
<path d="M546 1518 c3 -4 9 -8 15 -8 5 0 9 4 9 8 0 5 -7 9 -15 9 -8 0 -12 -4
-9 -9z"/>
<path d="M697 1519 c7 -7 15 -10 18 -7 3 3 -2 9 -12 12 -14 6 -15 5 -6 -5z"/>
<path d="M5290 1519 c0 -5 5 -7 12 -3 8 5 9 1 4 -12 -5 -14 -4 -16 5 -7 6 6 8
16 5 22 -9 14 -26 14 -26 0z"/>
<path d="M674 1486 c0 -20 5 -33 13 -33 8 0 9 5 4 11 -5 6 -7 19 -6 28 2 10 0
20 -4 22 -4 3 -7 -10 -7 -28z"/>
<path d="M750 1510 c0 -5 5 -10 11 -10 5 0 7 -5 3 -12 -4 -7 -3 -8 5 -4 9 6 9
11 0 22 -14 17 -19 18 -19 4z"/>
<path d="M630 1506 c0 -2 7 -7 16 -10 8 -3 12 -2 9 4 -6 10 -25 14 -25 6z"/>
<path d="M5221 1495 c0 -5 3 -16 8 -23 7 -11 9 -10 14 3 4 9 3 14 -2 10 -5 -3
-12 1 -14 7 -3 7 -6 9 -6 3z"/>
<path d="M5331 1487 c-8 -10 -7 -14 2 -14 8 0 14 6 14 14 0 7 -1 13 -2 13 -2
0 -8 -6 -14 -13z"/>
<path d="M790 1480 c0 -5 5 -10 11 -10 5 0 7 5 4 10 -3 6 -8 10 -11 10 -2 0
-4 -4 -4 -10z"/>
<path d="M5274 1475 c-4 -8 -11 -12 -17 -8 -6 4 -7 1 -2 -7 6 -10 10 -10 19 2
6 8 17 13 24 11 18 -7 15 4 -3 11 -9 3 -18 -1 -21 -9z"/>
<path d="M5188 1469 c-15 -8 -16 -13 -5 -29 6 -11 18 -20 25 -20 7 0 10 -5 6
-12 -5 -7 -3 -8 6 -3 9 5 4 14 -16 31 -23 18 -25 23 -11 24 9 0 17 5 17 10 0
12 0 12 -22 -1z"/>
<path d="M750 1461 c8 -5 18 -7 22 -5 4 3 8 1 8 -5 0 -5 -5 -12 -10 -14 -6 -3
-5 -4 2 -3 23 5 14 29 -12 33 -18 2 -21 1 -10 -6z"/>
<path d="M802 1439 c-19 -30 -11 -32 11 -3 10 13 14 24 10 24 -5 0 -14 -9 -21
-21z"/>
<path d="M827 1434 c-20 -26 -19 -61 1 -56 7 1 12 -5 12 -13 0 -8 5 -15 10
-15 7 0 7 7 0 20 -6 11 -15 18 -21 15 -5 -4 -9 4 -9 16 0 20 2 21 18 7 23 -19
59 -20 66 -2 4 10 2 13 -7 7 -21 -13 -46 -13 -43 0 1 6 1 9 -1 4 -3 -4 -9 -4
-14 -1 -6 3 -5 11 2 20 6 8 10 16 8 18 -2 2 -12 -7 -22 -20z"/>
<path d="M866 1435 c4 -8 11 -15 16 -15 6 0 5 6 -2 15 -7 8 -14 15 -16 15 -2
0 -1 -7 2 -15z"/>
<path d="M5229 1433 c12 -8 25 -12 28 -9 4 3 1 6 -6 6 -7 0 -10 4 -7 8 2 4 -5
9 -16 9 -21 2 -21 2 1 -14z"/>
<path d="M5273 1423 c4 -3 -1 -16 -10 -27 -18 -21 -18 -21 5 -2 24 21 29 36
10 36 -6 0 -8 -3 -5 -7z"/>
<path d="M719 1393 c-12 -16 -12 -17 2 -6 9 7 19 10 22 6 4 -3 7 -1 7 5 0 17
-16 15 -31 -5z"/>
<path d="M924 1403 c3 -7 -2 -14 -13 -18 -19 -6 -19 -35 0 -35 4 0 6 7 3 15
-7 18 12 20 20 3 2 -7 4 -3 2 9 -1 12 -6 26 -11 30 -4 5 -5 3 -1 -4z"/>
<path d="M5159 1393 c-13 -17 -13 -17 6 -3 11 8 22 16 24 17 2 2 0 3 -6 3 -6
0 -17 -8 -24 -17z"/>
<path d="M5335 1400 c-3 -5 -1 -10 4 -10 6 0 11 5 11 10 0 6 -2 10 -4 10 -3 0
-8 -4 -11 -10z"/>
<path d="M5175 1379 c-6 -8 -4 -10 5 -4 10 6 12 4 6 -11 -6 -15 -5 -17 5 -6 9
9 10 15 2 23 -8 8 -13 7 -18 -2z"/>
<path d="M873 1354 c0 -17 2 -22 7 -13 5 6 6 18 3 26 -8 19 -10 16 -10 -13z"/>
<path d="M715 1360 c-3 -5 -1 -10 4 -10 6 0 11 5 11 10 0 6 -2 10 -4 10 -3 0
-8 -4 -11 -10z"/>
<path d="M776 1353 c-6 -14 -5 -15 5 -6 7 7 10 15 7 18 -3 3 -9 -2 -12 -12z"/>
<path d="M4997 1364 c-3 -3 -4 -11 -1 -18 2 -6 -5 -12 -16 -13 -12 -1 -18 2
-14 9 5 7 2 8 -6 3 -10 -6 -8 -13 10 -27 28 -23 46 -18 42 12 -2 19 0 21 12
11 8 -7 12 -19 9 -27 -3 -8 1 -14 11 -14 10 0 13 -6 10 -17 -5 -15 -4 -16 5
-3 8 11 7 18 -4 26 -8 6 -13 13 -10 16 3 2 -6 14 -18 26 -13 12 -26 19 -30 16z
m13 -46 c0 -4 -4 -8 -9 -8 -6 0 -12 4 -15 8 -3 5 1 9 9 9 8 0 15 -4 15 -9z"/>
<path d="M5140 1361 c0 -5 7 -11 14 -14 10 -4 13 -1 9 9 -6 15 -23 19 -23 5z"/>
<path d="M5110 1340 c0 -5 5 -10 10 -10 6 0 10 5 10 10 0 6 -4 10 -10 10 -5 0
-10 -4 -10 -10z"/>
<path d="M5196 1335 c-9 -26 -7 -32 5 -12 6 10 9 21 6 23 -2 3 -7 -2 -11 -11z"/>
<path d="M891 1324 c0 -11 3 -14 6 -6 3 7 2 16 -1 19 -3 4 -6 -2 -5 -13z"/>
<path d="M710 1326 c0 -2 7 -7 16 -10 8 -3 12 -2 9 4 -6 10 -25 14 -25 6z"/>
<path d="M5137 1316 c-4 -10 -1 -13 8 -9 8 3 12 9 9 14 -7 12 -11 11 -17 -5z"/>
<path d="M5253 1305 c0 -8 4 -12 9 -9 5 3 6 10 3 15 -9 13 -12 11 -12 -6z"/>
<path d="M820 1306 c0 -2 8 -10 18 -17 15 -13 16 -12 3 4 -13 16 -21 21 -21
13z"/>
<path d="M5093 1303 c4 -3 -1 -12 -11 -20 -15 -13 -15 -13 6 -3 19 9 23 30 5
30 -4 0 -3 -3 0 -7z"/>
<path d="M890 1291 c0 -6 4 -13 10 -16 6 -3 7 1 4 9 -7 18 -14 21 -14 7z"/>
<path d="M980 1290 c0 -5 0 -13 1 -17 0 -4 -8 -11 -18 -15 -17 -7 -17 -8 1 -5
16 2 36 47 21 47 -3 0 -5 -4 -5 -10z"/>
<path d="M5005 1280 c-3 -6 1 -7 9 -4 18 7 21 14 7 14 -6 0 -13 -4 -16 -10z"/>
<path d="M1025 1260 c-7 -12 2 -30 16 -30 5 0 9 5 9 11 0 5 -5 7 -12 3 -8 -5
-9 -2 -5 9 7 19 2 23 -8 7z"/>
<path d="M5015 1261 c-3 -5 0 -13 6 -17 8 -5 9 -3 4 6 -6 10 -4 12 9 7 10 -4
15 -3 11 3 -8 13 -22 13 -30 1z"/>
<path d="M5075 1260 c-16 -7 -17 -9 -3 -9 9 -1 20 4 23 9 7 11 7 11 -20 0z"/>
<path d="M895 1250 c-4 -6 -12 -7 -18 -4 -7 4 -8 3 -4 -1 13 -15 34 -14 34 1
0 17 -4 18 -12 4z"/>
<path d="M986 1245 c-11 -8 -15 -15 -9 -15 6 0 16 7 23 15 16 19 11 19 -14 0z"/>
<path d="M4990 1245 c0 -8 4 -15 10 -15 5 0 7 7 4 15 -4 8 -8 15 -10 15 -2 0
-4 -7 -4 -15z"/>
<path d="M927 1239 c7 -7 15 -10 18 -7 3 3 -2 9 -12 12 -14 6 -15 5 -6 -5z"/>
<path d="M1102 1238 c-5 -5 -18 -11 -28 -12 -11 -2 -20 -11 -21 -22 -3 -18 -2
-18 6 1 5 11 10 16 10 12 1 -4 11 -2 24 5 12 7 28 11 35 10 6 -2 12 1 12 6 0
11 -27 11 -38 0z"/>
<path d="M1020 1210 c6 -11 13 -20 16 -20 2 0 0 9 -6 20 -6 11 -13 20 -16 20
-2 0 0 -9 6 -20z"/>
<path d="M5038 1223 c7 -3 16 -2 19 1 4 3 -2 6 -13 5 -11 0 -14 -3 -6 -6z"/>
<path d="M1110 1211 c0 -7 -4 -9 -10 -6 -5 3 -10 1 -10 -4 0 -6 4 -11 9 -11
13 0 25 20 17 27 -3 4 -6 1 -6 -6z"/>
<path d="M4980 1211 c0 -7 -4 -10 -9 -6 -6 3 -14 -3 -20 -13 -7 -14 -6 -19 4
-19 7 0 11 7 7 15 -3 10 -1 13 6 8 12 -7 28 12 18 21 -3 4 -6 1 -6 -6z"/>
<path d="M5289 1203 c-13 -16 -12 -17 4 -4 9 7 17 15 17 17 0 8 -8 3 -21 -13z"/>
<path d="M895 1180 c-3 -5 -1 -10 4 -10 6 0 11 5 11 10 0 6 -2 10 -4 10 -3 0
-8 -4 -11 -10z"/>
<path d="M955 1170 c10 -11 20 -20 23 -20 3 0 -3 9 -13 20 -10 11 -20 20 -23
20 -3 0 3 -9 13 -20z"/>
<path d="M1071 1183 c3 -20 -2 -27 -11 -13 -6 9 -10 10 -10 3 0 -19 17 -24 29
-9 9 10 9 16 1 21 -6 4 -10 3 -9 -2z"/>
<path d="M1110 1180 c-11 -7 -11 -10 -2 -10 7 0 11 -4 7 -9 -3 -5 0 -13 6 -17
7 -4 9 -3 5 4 -3 5 0 13 6 15 10 4 10 6 0 6 -7 1 -10 6 -7 11 8 12 4 12 -15 0z"/>
<path d="M4824 1175 c11 -8 24 -15 30 -15 5 0 1 7 -10 15 -10 8 -23 14 -29 14
-5 0 -1 -6 9 -14z"/>
<path d="M4873 1173 c0 -11 7 -20 14 -20 10 0 10 4 1 16 -7 9 -13 18 -15 20
-1 2 -1 -5 0 -16z"/>
<path d="M4790 1170 c0 -5 6 -10 13 -10 8 0 7 -3 -3 -10 -9 -6 -17 -5 -22 3
-6 9 -8 9 -8 0 0 -19 13 -22 37 -9 22 11 22 12 3 24 -12 7 -20 8 -20 2z"/>
<path d="M936 1138 c3 -5 10 -6 15 -3 13 9 11 12 -6 12 -8 0 -12 -4 -9 -9z"/>
<path d="M1079 1133 c-13 -16 -12 -17 4 -4 16 13 21 21 13 21 -2 0 -10 -8 -17
-17z"/>
<path d="M4746 1134 c-8 -20 0 -32 14 -18 5 5 5 15 1 22 -6 11 -10 10 -15 -4z"/>
<path d="M4855 1141 c6 -10 4 -13 -7 -9 -11 5 -14 0 -14 -17 1 -13 5 -27 9
-31 3 -4 4 3 2 16 -3 15 0 20 9 17 15 -6 16 17 1 30 -4 5 -5 2 0 -6z"/>
<path d="M4918 1143 c7 -3 16 -2 19 1 4 3 -2 6 -13 5 -11 0 -14 -3 -6 -6z"/>
<path d="M4950 1146 c0 -2 7 -7 16 -10 8 -3 12 -2 9 4 -6 10 -25 14 -25 6z"/>
<path d="M1234 1115 c1 -11 4 -18 8 -15 4 3 14 -4 23 -15 16 -19 16 -19 5 3
-6 12 -15 20 -20 17 -5 -3 -10 3 -13 12 -3 14 -4 14 -3 -2z"/>
<path d="M1264 1123 c13 -13 20 -15 23 -5 3 6 9 12 14 12 6 0 7 -4 4 -10 -3
-5 -1 -10 4 -10 6 0 11 4 11 9 0 17 -20 23 -35 11 -11 -9 -15 -9 -15 -1 0 6
-5 11 -12 11 -7 0 -5 -7 6 -17z"/>
<path d="M4897 1125 c3 -8 9 -12 14 -9 12 7 11 11 -5 17 -10 4 -13 1 -9 -8z"/>
<path d="M995 1121 c-3 -5 -2 -12 3 -15 5 -3 9 1 9 9 0 17 -3 19 -12 6z"/>
<path d="M1130 1118 c0 -4 9 -7 20 -5 29 5 33 13 5 13 -14 0 -25 -4 -25 -8z"/>
<path d="M4795 1119 c-4 -6 -5 -12 -2 -15 2 -3 7 2 10 11 7 17 1 20 -8 4z"/>
<path d="M1186 1095 c5 -11 4 -16 -3 -12 -5 3 -10 0 -10 -8 0 -12 3 -12 16 -3
9 7 17 13 19 14 1 1 -4 7 -13 14 -13 11 -14 10 -9 -5z"/>
<path d="M1320 1100 c-13 -8 -12 -10 3 -10 9 0 17 5 17 10 0 12 -1 12 -20 0z"/>
<path d="M4716 1093 c-6 -14 -5 -15 5 -6 7 7 10 15 7 18 -3 3 -9 -2 -12 -12z"/>
<path d="M1292 1080 c0 -14 2 -19 5 -12 2 6 2 18 0 25 -3 6 -5 1 -5 -13z"/>
<path d="M4661 1080 c-9 -5 -4 -7 13 -7 29 0 32 2 13 10 -8 3 -20 2 -26 -3z"/>
<path d="M4748 1083 c7 -3 16 -2 19 1 4 3 -2 6 -13 5 -11 0 -14 -3 -6 -6z"/>
<path d="M1507 1069 c7 -7 15 -10 18 -7 3 3 -2 9 -12 12 -14 6 -15 5 -6 -5z"/>
<path d="M1230 1055 c5 -7 6 -16 2 -21 -4 -5 -3 -6 2 -2 5 4 14 4 20 -2 8 -6
12 -3 12 9 0 12 -5 17 -15 13 -8 -3 -12 -1 -8 5 3 5 0 10 -8 10 -10 0 -12 -4
-5 -12z"/>
<path d="M1310 1060 c0 -5 7 -6 17 -3 12 5 14 3 8 -7 -5 -9 -4 -11 4 -6 6 4 9
12 6 17 -8 12 -35 12 -35 -1z"/>
<path d="M4620 1059 c0 -5 5 -7 12 -3 8 5 9 0 5 -16 -4 -16 -3 -20 5 -12 6 6
8 18 5 26 -7 18 -27 22 -27 5z"/>
<path d="M4710 1060 c0 -5 5 -10 10 -10 6 0 10 5 10 10 0 6 -4 10 -10 10 -5 0
-10 -4 -10 -10z"/>
<path d="M4789 1057 c6 -8 7 -18 3 -22 -4 -5 -1 -5 6 -1 10 6 10 11 1 22 -6 8
-14 14 -16 14 -3 0 0 -6 6 -13z"/>
<path d="M4600 1045 c0 -8 4 -15 10 -15 5 0 7 7 4 15 -4 8 -8 15 -10 15 -2 0
-4 -7 -4 -15z"/>
<path d="M1355 1039 c-4 -6 -4 -13 -1 -16 3 -4 6 -1 6 6 0 7 5 9 10 6 6 -3 10
-1 10 4 0 14 -17 14 -25 0z"/>
<path d="M1390 1042 c0 -5 12 -14 26 -20 15 -8 22 -17 18 -25 -4 -7 -2 -7 7 2
11 11 11 14 1 18 -7 3 -19 11 -26 19 -16 16 -26 18 -26 6z"/>
<path d="M4709 1023 c-13 -16 -12 -17 4 -4 9 7 17 15 17 17 0 8 -8 3 -21 -13z"/>
<path d="M1126 1018 c3 -5 10 -6 15 -3 13 9 11 12 -6 12 -8 0 -12 -4 -9 -9z"/>
<path d="M1580 1026 c0 -3 7 -12 16 -20 8 -9 11 -16 5 -16 -6 0 -11 -5 -11
-11 0 -8 5 -8 15 1 20 16 19 23 -5 38 -11 7 -20 10 -20 8z"/>
<path d="M4570 1019 c0 -5 -5 -7 -10 -4 -6 4 -10 3 -9 -2 4 -22 -2 -34 -13
-27 -7 4 -9 3 -5 -1 13 -15 36 -14 30 1 -4 10 0 13 13 8 16 -5 16 -4 4 5 -14
10 -7 16 13 12 5 -1 6 3 2 9 -8 13 -25 13 -25 -1z"/>
<path d="M4659 1028 c0 -2 -2 -13 -3 -26 -3 -21 -2 -21 16 -5 22 20 23 24 1
16 -11 -4 -14 -3 -9 5 4 7 5 12 2 12 -3 0 -6 -1 -7 -2z"/>
<path d="M4855 1021 c-3 -5 -2 -12 3 -15 5 -3 9 1 9 9 0 17 -3 19 -12 6z"/>
<path d="M1297 1005 c3 -8 9 -12 14 -9 12 7 11 11 -5 17 -10 4 -13 1 -9 -8z"/>
<path d="M4735 1009 c-4 -6 -5 -12 -2 -15 2 -3 7 2 10 11 7 17 1 20 -8 4z"/>
<path d="M1199 993 c-13 -16 -12 -17 4 -4 9 7 17 15 17 17 0 8 -8 3 -21 -13z"/>
<path d="M1330 1000 c0 -5 5 -10 10 -10 6 0 10 5 10 10 0 6 -4 10 -10 10 -5 0
-10 -4 -10 -10z"/>
<path d="M1360 1006 c0 -2 7 -7 16 -10 8 -3 12 -2 9 4 -6 10 -25 14 -25 6z"/>
<path d="M4625 999 c-4 -6 -5 -12 -2 -15 2 -3 7 2 10 11 7 17 1 20 -8 4z"/>
<path d="M1030 986 c0 -2 7 -7 16 -10 8 -3 12 -2 9 4 -6 10 -25 14 -25 6z"/>
<path d="M1435 979 c-19 -9 -19 -9 2 -5 12 2 24 -1 27 -8 3 -8 5 -8 5 1 1 17
-11 22 -34 12z"/>
<path d="M1489 968 c-6 -12 -6 -18 1 -18 5 0 10 7 10 15 0 21 27 7 34 -18 3
-12 8 -18 12 -14 4 3 16 2 28 -4 20 -10 20 -9 2 5 -10 9 -22 13 -26 11 -5 -3
-10 6 -14 18 -7 28 -33 31 -47 5z"/>
<path d="M1335 971 c-3 -5 -2 -12 3 -15 5 -3 9 1 9 9 0 17 -3 19 -12 6z"/>
<path d="M4443 972 c-8 -5 -9 -13 -3 -22 8 -13 10 -13 10 2 0 9 6 19 13 21 6
3 8 6 2 6 -5 0 -15 -3 -22 -7z"/>
<path d="M4512 958 c2 -6 10 -13 16 -14 7 -1 8 0 2 3 -5 2 -8 9 -4 14 3 5 0 9
-6 9 -7 0 -10 -5 -8 -12z"/>
<path d="M4595 959 c-4 -6 -5 -12 -2 -15 2 -3 7 2 10 11 7 17 1 20 -8 4z"/>
<path d="M4470 952 c0 -6 9 -12 20 -15 11 -3 20 -3 20 -1 0 2 -9 8 -20 14 -11
6 -20 7 -20 2z"/>
<path d="M4556 951 c-3 -5 1 -11 9 -14 9 -4 12 -1 8 9 -6 16 -10 17 -17 5z"/>
<path d="M4695 951 c-3 -5 -2 -12 3 -15 5 -3 9 1 9 9 0 17 -3 19 -12 6z"/>
<path d="M1505 920 c-3 -6 1 -7 9 -4 18 7 21 14 7 14 -6 0 -13 -4 -16 -10z"/>
<path d="M4450 920 c0 -4 7 -7 15 -6 23 3 26 12 5 13 -11 1 -20 -2 -20 -7z"/>
<path d="M4536 913 c-6 -14 -5 -15 5 -6 7 7 10 15 7 18 -3 3 -9 -2 -12 -12z"/>
<path d="M1536 911 c-4 -5 3 -7 14 -4 23 6 26 13 6 13 -8 0 -17 -4 -20 -9z"/>
<path d="M1590 900 c8 -5 18 -6 23 -3 5 3 6 -5 3 -18 -3 -13 -3 -18 0 -11 3 6
10 9 16 6 7 -4 7 0 0 13 -6 10 -21 19 -34 20 -17 2 -19 0 -8 -7z"/>
<path d="M4390 900 c0 -5 5 -10 10 -10 6 0 10 5 10 10 0 6 -4 10 -10 10 -5 0
-10 -4 -10 -10z"/>
<path d="M4606 898 c3 -5 10 -6 15 -3 13 9 11 12 -6 12 -8 0 -12 -4 -9 -9z"/>
<path d="M4656 898 c3 -4 11 -5 19 -1 21 7 19 12 -4 10 -11 0 -18 -5 -15 -9z"/>
<path d="M1495 889 c-4 -6 -5 -12 -2 -15 2 -3 7 2 10 11 7 17 1 20 -8 4z"/>
<path d="M4430 890 c-9 -6 -10 -10 -3 -10 6 0 15 5 18 10 8 12 4 12 -15 0z"/>
<path d="M1519 888 c-7 -23 -4 -35 7 -35 9 0 11 4 4 12 -5 7 -7 15 -3 18 3 4
3 7 0 7 -4 0 -7 -1 -8 -2z"/>
<path d="M1570 879 c0 -5 5 -7 10 -4 6 3 10 8 10 11 0 2 -4 4 -10 4 -5 0 -10
-5 -10 -11z"/>
<path d="M1657 875 c-8 -19 12 -30 26 -16 9 9 7 10 -8 5 -18 -7 -18 -6 -6 9 7
9 9 17 3 17 -5 0 -12 -7 -15 -15z"/>
<path d="M4273 875 c0 -8 4 -15 9 -15 4 0 8 7 8 15 0 8 -4 15 -8 15 -5 0 -9
-7 -9 -15z"/>
<path d="M4354 878 c-4 -6 -3 -8 4 -4 5 3 13 0 15 -6 3 -8 6 -6 6 5 1 19 -14
23 -25 5z"/>
<path d="M4499 873 c-13 -16 -12 -17 4 -4 16 13 21 21 13 21 -2 0 -10 -8 -17
-17z"/>
<path d="M1765 860 c-3 -5 -1 -10 4 -10 6 0 11 5 11 10 0 6 -2 10 -4 10 -3 0
-8 -4 -11 -10z"/>
<path d="M4336 857 c3 -10 9 -15 12 -12 3 3 0 11 -7 18 -10 9 -11 8 -5 -6z"/>
<path d="M4390 865 c0 -5 5 -17 10 -25 5 -8 10 -10 10 -5 0 6 -5 17 -10 25 -5
8 -10 11 -10 5z"/>
<path d="M4550 865 c0 -7 30 -13 34 -7 3 4 -4 9 -15 9 -10 1 -19 0 -19 -2z"/>
<path d="M1633 832 c-1 -22 0 -24 9 -8 6 10 6 22 2 26 -5 5 -10 -3 -11 -18z"/>
<path d="M1865 851 c-3 -5 6 -21 20 -35 27 -27 45 -33 45 -16 0 6 -5 9 -11 8
-6 -2 -14 3 -16 10 -3 8 1 10 14 5 11 -4 8 2 -9 15 -29 25 -34 26 -43 13z m30
-11 c3 -5 2 -10 -4 -10 -5 0 -13 5 -16 10 -3 6 -2 10 4 10 5 0 13 -4 16 -10z"/>
<path d="M1594 835 c3 -23 12 -26 13 -5 1 11 -2 20 -7 20 -4 0 -7 -7 -6 -15z"/>
<path d="M1680 830 c-6 -11 -8 -20 -6 -20 3 0 10 9 16 20 6 11 8 20 6 20 -3 0
-10 -9 -16 -20z"/>
<path d="M4370 841 c0 -6 4 -13 10 -16 6 -3 7 1 4 9 -7 18 -14 21 -14 7z"/>
<path d="M1750 831 c0 -6 7 -11 16 -11 8 0 13 -4 10 -8 -2 -4 -1 -14 5 -22 6
-11 9 -12 9 -2 0 10 5 10 22 -2 12 -9 27 -16 33 -16 5 0 -3 9 -20 20 -16 11
-40 27 -52 36 -14 10 -23 12 -23 5z"/>
<path d="M4204 822 c-5 -4 -11 -18 -11 -31 -1 -13 0 -21 3 -18 5 4 7 13 13 47
1 3 6 -2 11 -10 6 -9 10 -10 10 -3 0 16 -13 23 -26 15z"/>
<path d="M1842 813 c-13 -5 -7 -23 9 -23 6 0 7 5 4 10 -3 6 -1 10 4 10 6 0 11
-4 11 -10 0 -5 5 -10 11 -10 8 0 8 5 -1 15 -13 16 -17 17 -38 8z"/>
<path d="M1678 798 c-9 -5 -6 -7 9 -5 12 2 25 6 28 8 8 9 -23 6 -37 -3z"/>
<path d="M4285 800 c-3 -6 1 -7 9 -4 18 7 21 14 7 14 -6 0 -13 -4 -16 -10z"/>
<path d="M4326 802 c-3 -5 1 -9 9 -9 8 0 15 4 15 9 0 4 -4 8 -9 8 -6 0 -12 -4
-15 -8z"/>
<path d="M4366 798 c3 -5 10 -6 15 -3 13 9 11 12 -6 12 -8 0 -12 -4 -9 -9z"/>
<path d="M4410 806 c0 -2 7 -7 16 -10 8 -3 12 -2 9 4 -6 10 -25 14 -25 6z"/>
<path d="M1570 779 c0 -5 5 -7 10 -4 6 3 10 8 10 11 0 2 -4 4 -10 4 -5 0 -10
-5 -10 -11z"/>
<path d="M1715 781 c-3 -5 0 -13 6 -17 7 -4 9 -3 5 4 -3 5 0 13 6 15 9 4 10 6
1 6 -6 1 -14 -3 -18 -8z"/>
<path d="M1755 780 c3 -5 8 -10 11 -10 2 0 4 5 4 10 0 6 -5 10 -11 10 -5 0 -7
-4 -4 -10z"/>
<path d="M4213 774 c-3 -8 -2 -19 3 -24 5 -5 9 1 9 16 0 28 -3 30 -12 8z"/>
<path d="M1856 765 c-3 -8 -1 -15 4 -15 6 0 10 7 10 15 0 8 -2 15 -4 15 -2 0
-6 -7 -10 -15z"/>
<path d="M1887 773 c-4 -3 -2 -12 4 -20 9 -10 6 -13 -12 -14 -18 -1 -20 -2 -6
-6 19 -5 57 22 57 41 0 6 -5 3 -11 -7 -6 -9 -15 -15 -21 -11 -6 4 -5 10 3 15
8 5 9 9 3 9 -6 0 -14 -3 -17 -7z"/>
<path d="M1693 751 c0 -11 5 -18 9 -15 4 3 5 11 1 19 -7 21 -12 19 -10 -4z"/>
<path d="M1794 762 c4 -3 14 -7 22 -8 9 -1 13 0 10 4 -4 3 -14 7 -22 8 -9 1
-13 0 -10 -4z"/>
<path d="M4100 750 c0 -5 -5 -9 -11 -7 -6 1 -14 -5 -16 -13 -4 -12 -3 -12 5
-2 5 8 13 13 18 12 5 -1 10 3 12 9 2 6 1 11 -2 11 -3 0 -6 -4 -6 -10z"/>
<path d="M1828 733 c7 -3 16 -2 19 1 4 3 -2 6 -13 5 -11 0 -14 -3 -6 -6z"/>
<path d="M1745 720 c-3 -6 1 -7 9 -4 18 7 21 14 7 14 -6 0 -13 -4 -16 -10z"/>
<path d="M1985 720 c3 -5 1 -10 -4 -10 -6 0 -11 -5 -11 -11 0 -8 5 -8 15 1 17
14 20 30 4 30 -5 0 -7 -4 -4 -10z"/>
<path d="M2090 720 c0 -5 5 -10 11 -10 5 0 7 5 4 10 -3 6 -8 10 -11 10 -2 0
-4 -4 -4 -10z"/>
<path d="M4045 720 c-3 -5 -1 -10 4 -10 6 0 11 5 11 10 0 6 -2 10 -4 10 -3 0
-8 -4 -11 -10z"/>
<path d="M4104 718 c-4 -7 -4 -10 1 -6 4 4 14 0 21 -10 12 -15 12 -15 7 6 -6
24 -18 29 -29 10z"/>
<path d="M4195 720 c3 -5 8 -10 11 -10 2 0 4 5 4 10 0 6 -5 10 -11 10 -5 0 -7
-4 -4 -10z"/>
<path d="M1676 698 c3 -4 11 -5 19 -1 21 7 19 12 -4 10 -11 0 -18 -5 -15 -9z"/>
<path d="M1791 693 c7 -12 15 -20 18 -17 3 2 -3 12 -13 22 -17 16 -18 16 -5
-5z"/>
<path d="M4070 700 c0 -5 5 -10 10 -10 6 0 10 5 10 10 0 6 -4 10 -10 10 -5 0
-10 -4 -10 -10z"/>
<path d="M4155 701 c-3 -5 -2 -12 3 -15 5 -3 9 1 9 9 0 17 -3 19 -12 6z"/>
<path d="M4180 706 c0 -2 8 -10 18 -17 15 -13 16 -12 3 4 -13 16 -21 21 -21
13z"/>
<path d="M4290 700 c0 -5 5 -10 11 -10 5 0 7 5 4 10 -3 6 -8 10 -11 10 -2 0
-4 -4 -4 -10z"/>
<path d="M1879 683 c0 -5 -3 -19 -5 -32 -2 -14 -2 -22 1 -19 8 8 17 58 10 58
-3 0 -5 -3 -6 -7z"/>
<path d="M1940 680 c8 -5 20 -10 25 -10 6 0 3 5 -5 10 -8 5 -19 10 -25 10 -5
0 -3 -5 5 -10z"/>
<path d="M1980 668 c-10 -21 -10 -21 3 -6 8 10 17 15 20 11 4 -3 7 -1 7 5 0
20 -19 13 -30 -10z"/>
<path d="M2028 683 c7 -3 16 -2 19 1 4 3 -2 6 -13 5 -11 0 -14 -3 -6 -6z"/>
<path d="M3986 675 c10 -8 23 -15 28 -15 6 0 1 7 -10 15 -10 8 -23 15 -28 15
-6 0 -1 -7 10 -15z"/>
<path d="M4030 682 c0 -5 7 -9 15 -9 8 0 15 4 15 9 0 4 -7 8 -15 8 -8 0 -15
-4 -15 -8z"/>
<path d="M1750 665 c0 -7 30 -13 34 -7 3 4 -4 9 -15 9 -10 1 -19 0 -19 -2z"/>
<path d="M1905 659 c-3 -4 2 -6 10 -5 21 3 28 13 10 13 -9 0 -18 -4 -20 -8z"/>
<path d="M2013 657 c-3 -5 -2 -11 1 -14 3 -4 6 -1 6 6 0 7 4 10 8 7 4 -2 14
-1 22 4 11 7 9 9 -8 7 -13 -1 -26 -5 -29 -10z"/>
<path d="M3930 655 c0 -5 5 -17 10 -25 5 -8 10 -10 10 -5 0 6 -5 17 -10 25 -5
8 -10 11 -10 5z"/>
<path d="M2040 640 c-9 -6 -10 -10 -3 -10 6 0 15 5 18 10 8 12 4 12 -15 0z"/>
<path d="M3888 633 c11 -18 42 -27 42 -11 0 6 -7 8 -15 4 -9 -3 -15 0 -15 9 0
8 -5 15 -10 15 -7 0 -8 -6 -2 -17z"/>
<path d="M2059 628 c-8 -26 -5 -36 9 -31 9 4 13 2 9 -4 -4 -6 0 -13 8 -16 10
-4 12 -1 8 10 -5 12 -3 14 8 8 8 -5 11 -5 6 1 -5 5 -13 10 -18 10 -5 1 -14 2
-20 3 -5 0 -7 6 -4 11 3 6 4 10 1 10 -3 0 -6 -1 -7 -2z"/>
<path d="M3820 620 c0 -6 7 -10 15 -10 8 0 15 2 15 4 0 2 -7 6 -15 10 -8 3
-15 1 -15 -4z"/>
<path d="M3862 610 c-7 -12 -8 -20 -2 -20 5 0 10 5 10 11 0 8 6 7 18 -2 16
-13 16 -13 2 6 -8 11 -15 21 -15 22 0 1 -6 -7 -13 -17z"/>
<path d="M4000 620 c-9 -6 -10 -10 -3 -10 6 0 15 5 18 10 8 12 4 12 -15 0z"/>
<path d="M4135 620 c3 -5 8 -10 11 -10 2 0 4 5 4 10 0 6 -5 10 -11 10 -5 0 -7
-4 -4 -10z"/>
<path d="M1935 609 c-4 -6 -5 -12 -2 -15 2 -3 7 2 10 11 7 17 1 20 -8 4z"/>
<path d="M1973 607 c0 -7 9 -14 20 -14 11 -1 18 -1 16 0 -2 2 -11 8 -20 15
-12 9 -16 9 -16 -1z"/>
<path d="M4236 607 c3 -10 9 -15 12 -12 3 3 0 11 -7 18 -10 9 -11 8 -5 -6z"/>
<path d="M3935 601 c-3 -5 -2 -12 3 -15 5 -3 9 1 9 9 0 17 -3 19 -12 6z"/>
<path d="M3960 606 c0 -2 8 -10 18 -17 15 -13 16 -12 3 4 -13 16 -21 21 -21
13z"/>
<path d="M4033 595 c0 -8 4 -12 9 -9 4 3 8 9 8 15 0 5 -4 9 -8 9 -5 0 -9 -7
-9 -15z"/>
<path d="M4093 591 c0 -11 5 -18 9 -15 4 3 5 11 1 19 -7 21 -12 19 -10 -4z"/>
<path d="M3906 583 c-6 -14 -5 -15 5 -6 7 7 10 15 7 18 -3 3 -9 -2 -12 -12z"/>
<path d="M3636 578 c3 -5 10 -6 15 -3 13 9 11 12 -6 12 -8 0 -12 -4 -9 -9z"/>
<path d="M1993 565 c0 -8 4 -12 9 -9 5 3 6 10 3 15 -9 13 -12 11 -12 -6z"/>
<path d="M3770 571 c0 -6 4 -13 10 -16 6 -3 7 1 4 9 -7 18 -14 21 -14 7z"/>
<path d="M3796 565 c4 -8 8 -15 10 -15 2 0 4 7 4 15 0 8 -4 15 -10 15 -5 0 -7
-7 -4 -15z"/>
<path d="M3830 570 c0 -5 7 -7 15 -4 8 4 15 8 15 10 0 2 -7 4 -15 4 -8 0 -15
-4 -15 -10z"/>
<path d="M2046 558 c3 -5 10 -6 15 -3 13 9 11 12 -6 12 -8 0 -12 -4 -9 -9z"/>
<path d="M2170 560 c0 -5 5 -10 10 -10 6 0 10 5 10 10 0 6 -4 10 -10 10 -5 0
-10 -4 -10 -10z"/>
<path d="M3940 565 c0 -2 6 -8 13 -14 10 -8 14 -7 14 2 0 8 -6 14 -14 14 -7 0
-13 -1 -13 -2z"/>
<path d="M2073 533 c0 -9 4 -10 14 -2 7 6 13 12 13 14 0 1 -6 2 -13 2 -8 0
-14 -6 -14 -14z"/>
<path d="M2113 529 c-1 -10 3 -22 9 -25 7 -4 8 -2 4 5 -4 6 -3 18 3 25 8 9 7
13 -2 13 -7 0 -14 -8 -14 -18z"/>
<path d="M2260 535 c14 -17 0 -21 -17 -4 -7 7 -12 7 -15 -3 -4 -9 5 -13 32
-14 37 -2 37 -1 19 17 -23 23 -37 25 -19 4z"/>
<path d="M2195 530 c3 -5 8 -10 11 -10 2 0 4 5 4 10 0 6 -5 10 -11 10 -5 0 -7
-4 -4 -10z"/>
<path d="M3776 523 c-6 -14 -5 -15 5 -6 7 7 10 15 7 18 -3 3 -9 -2 -12 -12z"/>
<path d="M3730 526 c0 -2 7 -7 16 -10 8 -3 12 -2 9 4 -6 10 -25 14 -25 6z"/>
<path d="M3930 519 c0 -5 5 -7 10 -4 6 3 10 8 10 11 0 2 -4 4 -10 4 -5 0 -10
-5 -10 -11z"/>
<path d="M3790 505 c-11 -13 -10 -14 4 -9 9 3 16 10 16 15 0 13 -6 11 -20 -6z"/>
<path d="M3693 493 c-3 -7 -3 -18 0 -25 3 -7 6 -3 6 10 1 13 5 21 9 18 4 -2
14 -1 22 4 11 7 9 9 -9 7 -13 -1 -25 -7 -28 -14z"/>
<path d="M3826 502 c-3 -5 1 -9 9 -9 8 0 15 4 15 9 0 4 -4 8 -9 8 -6 0 -12 -4
-15 -8z"/>
<path d="M2036 487 c3 -10 9 -15 12 -12 3 3 0 11 -7 18 -10 9 -11 8 -5 -6z"/>
<path d="M2284 486 c11 -9 24 -16 30 -16 12 0 7 5 -24 19 -24 11 -24 11 -6 -3z"/>
<path d="M2331 484 c0 -11 3 -14 6 -6 3 7 2 16 -1 19 -3 4 -6 -2 -5 -13z"/>
<path d="M3476 484 c-12 -11 -13 -20 -6 -34 7 -13 7 -21 0 -25 -5 -3 -10 -11
-10 -18 0 -6 7 -1 16 11 15 22 17 22 39 8 23 -15 43 -7 30 13 -3 5 -1 12 3 15
5 3 14 -5 20 -19 8 -17 16 -22 31 -18 12 3 21 8 21 10 0 3 -9 3 -21 0 -15 -4
-19 -2 -15 9 3 9 1 12 -4 9 -6 -3 -10 -2 -10 3 0 5 -12 18 -27 27 -16 10 -22
12 -15 4 19 -20 14 -31 -7 -17 -11 7 -18 15 -15 19 9 16 -15 18 -30 3z m23 -1
c-3 -19 2 -36 8 -30 7 8 33 -11 33 -24 0 -5 -11 -2 -25 7 -14 9 -25 12 -25 8
0 -5 -4 -2 -10 6 -5 9 -5 19 2 27 12 15 19 17 17 6z"/>
<path d="M2207 479 c7 -7 15 -10 18 -7 3 3 -2 9 -12 12 -14 6 -15 5 -6 -5z"/>
<path d="M3733 475 c0 -8 4 -12 9 -9 4 3 8 9 8 15 0 5 -4 9 -8 9 -5 0 -9 -7
-9 -15z"/>
<path d="M2130 459 c0 -5 5 -7 10 -4 6 3 10 8 10 11 0 2 -4 4 -10 4 -5 0 -10
-5 -10 -11z"/>
<path d="M2350 460 c0 -5 5 -10 10 -10 6 0 10 5 10 10 0 6 -4 10 -10 10 -5 0
-10 -4 -10 -10z"/>
<path d="M3428 455 c-3 -4 -4 -20 -1 -36 2 -17 0 -29 -6 -29 -10 0 -16 21 -12
43 2 14 -8 7 -20 -14 -7 -13 -7 -19 -1 -15 6 3 13 -3 17 -14 5 -16 9 -17 24
-8 10 6 18 16 19 22 0 6 2 20 4 30 3 19 -13 32 -24 21z m22 -14 c0 -6 -4 -12
-8 -15 -5 -3 -9 1 -9 9 0 8 4 15 9 15 4 0 8 -4 8 -9z"/>
<path d="M2216 438 c3 -4 11 -5 19 -1 21 7 19 12 -4 10 -11 0 -18 -5 -15 -9z"/>
<path d="M2287 439 c7 -7 15 -10 18 -7 3 3 -2 9 -12 12 -14 6 -15 5 -6 -5z"/>
<path d="M2324 439 c-3 -6 -2 -15 3 -20 5 -5 9 -1 9 11 0 23 -2 24 -12 9z"/>
<path d="M3696 438 c3 -5 10 -6 15 -3 13 9 11 12 -6 12 -8 0 -12 -4 -9 -9z"/>
<path d="M3835 430 c-4 -6 -11 -7 -17 -4 -7 4 -8 2 -4 -5 6 -9 11 -9 22 0 14
11 18 19 10 19 -3 0 -8 -5 -11 -10z"/>
<path d="M2174 422 c4 -3 14 -7 22 -8 9 -1 13 0 10 4 -4 3 -14 7 -22 8 -9 1
-13 0 -10 -4z"/>
<path d="M2395 420 c3 -5 8 -10 11 -10 2 0 4 5 4 10 0 6 -5 10 -11 10 -5 0 -7
-4 -4 -10z"/>
<path d="M3360 420 c-9 -6 -10 -10 -3 -10 6 0 15 5 18 10 8 12 4 12 -15 0z"/>
<path d="M3670 421 c0 -5 8 -15 18 -22 15 -12 16 -12 5 2 -7 9 -10 19 -6 22 3
4 1 7 -5 7 -7 0 -12 -4 -12 -9z"/>
<path d="M3770 420 c0 -5 5 -10 11 -10 5 0 7 5 4 10 -3 6 -8 10 -11 10 -2 0
-4 -4 -4 -10z"/>
<path d="M3484 409 c-3 -6 -1 -16 6 -22 10 -9 11 -9 5 2 -4 8 -2 17 6 22 9 6
10 9 2 9 -6 0 -15 -5 -19 -11z"/>
<path d="M2370 398 c0 -6 3 -8 7 -5 3 4 13 1 22 -6 14 -11 14 -10 2 6 -15 20
-31 22 -31 5z"/>
<path d="M2520 400 c0 -5 5 -10 10 -10 6 0 10 5 10 10 0 6 -4 10 -10 10 -5 0
-10 -4 -10 -10z"/>
<path d="M3606 398 c3 -5 9 -7 12 -4 3 3 12 0 21 -6 13 -10 14 -10 4 2 -15 16
-46 23 -37 8z"/>
<path d="M2495 390 c6 -10 4 -12 -8 -7 -10 3 -17 2 -17 -4 0 -6 8 -9 18 -7 9
1 23 -1 30 -6 25 -15 20 -1 -6 18 -14 11 -22 13 -17 6z"/>
<path d="M3510 390 c0 -5 5 -10 10 -10 6 0 10 5 10 10 0 6 -4 10 -10 10 -5 0
-10 -4 -10 -10z"/>
<path d="M3380 380 c0 -5 5 -10 11 -10 5 0 7 5 4 10 -3 6 -8 10 -11 10 -2 0
-4 -4 -4 -10z"/>
<path d="M3454 375 c-4 -8 -3 -22 0 -31 5 -13 9 -13 30 3 13 10 22 20 20 22
-2 2 -13 -4 -24 -14 -19 -18 -20 -17 -20 4 0 14 4 20 12 15 7 -4 8 -3 4 4 -10
16 -15 15 -22 -3z"/>
<path d="M3710 385 c0 -7 30 -13 34 -7 3 4 -4 9 -15 9 -10 1 -19 0 -19 -2z"/>
<path d="M2409 363 c-13 -16 -12 -17 4 -4 16 13 21 21 13 21 -2 0 -10 -8 -17
-17z"/>
<path d="M2572 368 c3 -7 12 -14 22 -14 13 -2 13 -1 1 3 -8 2 -13 9 -10 14 4
5 1 9 -5 9 -7 0 -10 -6 -8 -12z"/>
<path d="M2600 376 c0 -2 7 -7 16 -10 8 -3 12 -2 9 4 -6 10 -25 14 -25 6z"/>
<path d="M3568 373 c-24 -6 -23 -19 0 -19 10 0 19 6 19 13 0 7 -1 12 -1 12 -1
-1 -9 -3 -18 -6z"/>
<path d="M3625 360 c10 -11 20 -20 23 -20 3 0 -3 9 -13 20 -10 11 -20 20 -23
20 -3 0 3 -9 13 -20z"/>
<path d="M2450 361 c0 -6 4 -13 10 -16 6 -3 7 1 4 9 -7 18 -14 21 -14 7z"/>
<path d="M2556 347 c3 -10 9 -15 12 -12 3 3 0 11 -7 18 -10 9 -11 8 -5 -6z"/>
<path d="M3380 345 c-9 -10 -9 -15 -1 -15 6 0 11 4 11 9 0 5 8 12 18 14 14 4
14 5 1 6 -9 0 -22 -6 -29 -14z"/>
<path d="M2540 330 c6 -11 13 -20 16 -20 2 0 0 9 -6 20 -6 11 -13 20 -16 20
-2 0 0 -9 6 -20z"/>
<path d="M2615 341 c-2 -5 7 -8 20 -8 14 0 25 2 25 6 0 10 -39 11 -45 2z"/>
<path d="M3430 341 c0 -6 4 -13 10 -16 6 -3 7 1 4 9 -7 18 -14 21 -14 7z"/>
<path d="M3510 340 c13 -8 8 -14 -11 -12 -3 1 -6 -6 -6 -14 0 -12 4 -11 18 2
19 17 17 34 -4 34 -7 0 -6 -4 3 -10z"/>
<path d="M2375 320 c-3 -5 -1 -10 4 -10 6 0 11 5 11 10 0 6 -2 10 -4 10 -3 0
-8 -4 -11 -10z"/>
<path d="M2426 318 c3 -4 9 -8 15 -8 5 0 9 4 9 8 0 5 -7 9 -15 9 -8 0 -12 -4
-9 -9z"/>
<path d="M2577 316 c-4 -10 -1 -13 9 -9 15 6 19 23 5 23 -5 0 -11 -7 -14 -14z"/>
<path d="M3396 314 c-9 -24 -2 -26 12 -4 7 11 8 20 3 20 -5 0 -12 -7 -15 -16z"/>
<path d="M2630 309 c0 -5 5 -7 10 -4 6 3 10 8 10 11 0 2 -4 4 -10 4 -5 0 -10
-5 -10 -11z"/>
<path d="M2659 303 c-1 -5 -1 -12 0 -16 2 -10 -39 -5 -59 8 -12 7 -13 6 -3 -7
14 -16 63 -19 62 -3 0 6 10 13 23 17 l23 6 -22 1 c-13 1 -24 -2 -24 -6z"/>
<path d="M3334 295 c-4 -8 -11 -12 -16 -9 -6 4 -5 -3 1 -15 14 -25 23 -28 14
-4 -4 11 -3 14 5 9 8 -5 10 -1 5 10 -5 13 -3 15 7 9 9 -5 11 -4 6 3 -10 16
-15 15 -22 -3z"/>
<path d="M3430 306 c0 -2 7 -7 16 -10 8 -3 12 -2 9 4 -6 10 -25 14 -25 6z"/>
<path d="M2780 288 c8 -9 19 -13 24 -10 5 3 6 -3 3 -14 -6 -17 -6 -17 5 -3 7
9 20 18 28 22 9 3 5 5 -10 5 -14 0 -34 3 -45 8 -17 7 -18 6 -5 -8z"/>
<path d="M2869 282 c9 -18 1 -54 -12 -53 -20 2 -27 0 -27 -7 0 -21 34 -6 51
22 21 35 20 48 -4 52 -13 2 -15 -2 -8 -14z"/>
<path d="M3250 289 c0 -5 -4 -7 -10 -4 -6 3 -7 -1 -4 -10 4 -9 7 -15 8 -13 1
2 8 11 15 21 9 11 10 17 2 17 -6 0 -11 -5 -11 -11z"/>
<path d="M2679 273 c-13 -16 -12 -17 4 -4 9 7 17 15 17 17 0 8 -8 3 -21 -13z"/>
<path d="M2747 268 c-13 -10 -14 -17 -6 -28 9 -12 10 -12 5 4 -5 14 -2 17 9
12 9 -3 14 -2 10 3 -3 5 1 12 7 14 7 3 8 6 2 6 -5 1 -18 -5 -27 -11z"/>
<path d="M3270 270 c0 -5 5 -10 10 -10 6 0 10 5 10 10 0 6 -4 10 -10 10 -5 0
-10 -4 -10 -10z"/>
<path d="M3387 266 c-4 -10 -1 -13 8 -9 8 3 12 9 9 14 -7 12 -11 11 -17 -5z"/>
<path d="M2697 264 c-10 -10 4 -34 16 -27 6 4 8 0 5 -9 -4 -8 0 -15 7 -15 10
0 11 5 4 19 -5 10 -14 18 -20 18 -6 0 -7 5 -4 10 7 11 2 14 -8 4z"/>
<path d="M2830 266 c0 -2 7 -6 15 -10 8 -3 15 -1 15 4 0 6 -7 10 -15 10 -8 0
-15 -2 -15 -4z"/>
<path d="M3200 260 c-13 -8 -13 -10 2 -10 9 0 20 5 23 10 8 13 -5 13 -25 0z"/>
<path d="M2782 240 c0 -14 2 -19 5 -12 2 6 2 18 0 25 -3 6 -5 1 -5 -13z"/>
<path d="M3102 240 c-10 -17 -10 -21 3 -26 8 -3 13 -10 10 -14 -3 -5 0 -12 6
-16 8 -4 9 -3 5 4 -4 7 -1 12 6 12 7 1 2 7 -12 15 -24 14 -23 16 9 19 17 1 28
26 11 26 -6 0 -8 -4 -5 -10 3 -5 2 -10 -4 -10 -5 0 -11 5 -13 10 -2 6 -9 1
-16 -10z"/>
<path d="M3357 253 c-10 -9 -9 -23 1 -23 5 0 9 7 9 15 0 17 -1 18 -10 8z"/>
<path d="M2815 239 c-11 -16 -1 -19 13 -3 7 8 8 14 3 14 -5 0 -13 -5 -16 -11z"/>
<path d="M2940 240 c0 -5 5 -10 10 -10 6 0 10 5 10 10 0 6 -4 10 -10 10 -5 0
-10 -4 -10 -10z"/>
<path d="M3250 240 c0 -5 5 -10 10 -10 6 0 10 5 10 10 0 6 -4 10 -10 10 -5 0
-10 -4 -10 -10z"/>
<path d="M3290 242 c0 -5 7 -9 15 -9 8 0 12 4 9 9 -3 4 -9 8 -15 8 -5 0 -9 -4
-9 -8z"/>
<path d="M3510 246 c0 -2 7 -7 16 -10 8 -3 12 -2 9 4 -6 10 -25 14 -25 6z"/>
<path d="M2755 220 c-3 -5 -1 -10 4 -10 6 0 11 5 11 10 0 6 -2 10 -4 10 -3 0
-8 -4 -11 -10z"/>
<path d="M2882 218 c-7 -7 -12 -16 -12 -22 0 -5 7 -1 16 10 13 16 15 16 10 2
-3 -10 -1 -18 4 -18 12 0 13 27 2 34 -5 3 -14 0 -20 -6z"/>
<path d="M3010 221 c0 -5 7 -12 16 -15 14 -5 15 -4 4 9 -14 17 -20 19 -20 6z"/>
<path d="M3150 225 c0 -5 5 -17 10 -25 5 -8 10 -10 10 -5 0 6 -5 17 -10 25 -5
8 -10 11 -10 5z"/>
<path d="M2930 205 c0 -8 4 -15 10 -15 5 0 7 7 4 15 -4 8 -8 15 -10 15 -2 0
-4 -7 -4 -15z"/>
<path d="M3226 204 c-5 -14 -4 -15 9 -4 17 14 19 20 6 20 -5 0 -12 -7 -15 -16z"/>
<path d="M3335 200 c2 -27 10 -33 12 -10 1 11 -2 22 -6 24 -4 3 -7 -4 -6 -14z"/>
<path d="M2640 200 c-9 -6 -10 -10 -3 -10 6 0 15 5 18 10 8 12 4 12 -15 0z"/>
<path d="M2784 202 c4 -3 14 -7 22 -8 9 -1 13 0 10 4 -4 3 -14 7 -22 8 -9 1
-13 0 -10 -4z"/>
<path d="M2993 204 c4 -4 -1 -13 -11 -21 -15 -12 -14 -13 8 -2 33 16 33 16 13
23 -9 4 -14 4 -10 0z"/>
<path d="M3186 184 c-5 -14 -4 -15 9 -4 17 14 19 20 6 20 -5 0 -12 -7 -15 -16z"/>
<path d="M2831 183 c3 -19 -2 -27 -10 -15 -7 11 -9 11 -14 -1 -6 -17 17 -17
34 0 8 8 8 13 0 18 -6 3 -11 3 -10 -2z"/>
<path d="M2735 169 c-4 -6 -5 -12 -2 -15 2 -3 7 2 10 11 7 17 1 20 -8 4z"/>
<path d="M3155 169 c-4 -6 -5 -12 -2 -15 2 -3 7 2 10 11 7 17 1 20 -8 4z"/>
<path d="M3206 161 c-12 -13 -14 -21 -6 -26 6 -4 9 -1 8 7 -2 7 2 12 8 11 6
-1 11 5 11 13 0 18 0 18 -21 -5z"/>
<path d="M2635 160 c-3 -5 -1 -10 4 -10 6 0 11 5 11 10 0 6 -2 10 -4 10 -3 0
-8 -4 -11 -10z"/>
<path d="M2992 165 c4 -5 2 -15 -5 -24 -10 -14 -10 -14 5 -3 9 8 22 11 28 7 5
-3 10 -4 10 -1 0 3 -10 11 -22 17 -13 6 -20 8 -16 4z"/>
<path d="M3035 160 c3 -5 8 -10 11 -10 2 0 4 5 4 10 0 6 -5 10 -11 10 -5 0 -7
-4 -4 -10z"/>
<path d="M3093 155 c0 -8 4 -12 9 -9 4 3 8 9 8 15 0 5 -4 9 -8 9 -5 0 -9 -7
-9 -15z"/>
<path d="M2775 151 c-3 -5 -2 -12 3 -15 5 -3 9 1 9 9 0 17 -3 19 -12 6z"/>
<path d="M2690 140 c0 -5 5 -10 11 -10 5 0 7 5 4 10 -3 6 -8 10 -11 10 -2 0
-4 -4 -4 -10z"/>
<path d="M2899 138 c-5 -9 -5 -48 -1 -43 6 6 11 45 5 45 -2 0 -4 -1 -4 -2z"/>
<path d="M3065 120 c10 -11 20 -20 23 -20 3 0 -3 9 -13 20 -10 11 -20 20 -23
20 -3 0 3 -9 13 -20z"/>
<path d="M3006 118 c3 -5 10 -6 15 -3 13 9 11 12 -6 12 -8 0 -12 -4 -9 -9z"/>
<path d="M3096 118 c3 -5 10 -6 15 -3 13 9 11 12 -6 12 -8 0 -12 -4 -9 -9z"/>
<path d="M3213 95 c0 -8 4 -12 9 -9 5 3 6 10 3 15 -9 13 -12 11 -12 -6z"/>
<path d="M2976 62 c-3 -5 1 -9 9 -9 8 0 12 4 9 9 -3 4 -7 8 -9 8 -2 0 -6 -4
-9 -8z"/>
</g>
</svg>
